<?xml version="1.0" encoding="utf-8"?>
<!-- Generator: Adobe Illustrator 23.0.4, SVG Export Plug-In . SVG Version: 6.00 Build 0)  -->
<svg version="1.1" xmlns="http://www.w3.org/2000/svg" xmlns:xlink="http://www.w3.org/1999/xlink" x="0px" y="0px"
	 viewBox="0 0 271.3 646.4" style="enable-background:new 0 0 271.3 646.4;" xml:space="preserve">
<style type="text/css">
	.st0{fill:#FFFFFF;}
</style>
<g id="thumbup">
</g>
<g id="Layer_1">
	<g>
		
			<!-- <image style="overflow:visible;opacity:0.35;" width="961" height="2585" xlink:href="F32F27EBC13DEF64.png"  transform="matrix(0.24 0 0 0.24 15.4588 30.6064)">
		</image> -->
		<g>
			<g>
				<g>
					<g>
						<polygon points="221.2,173 221.2,173 221.2,173 						"/>
						<path d="M221.2,173L221.2,173L221.2,173c-0.2-0.1-0.3-0.2-0.5-0.2C220.9,172.8,221.1,172.9,221.2,173z"/>
						<path d="M219.4,172.1c0.3,0.1,0.7,0.3,1.1,0.5C220.1,172.5,219.8,172.3,219.4,172.1z"/>
						<path d="M220.2,174c-1.8-1.5-3-1.9-2.9-2.3c0-0.1,0.8-0.1,2.1,0.4c0.3,0.1,0.7,0.3,1.1,0.5c0.1,0,0.1,0.1,0.2,0.1
							c0.1,0.1,0.3,0.2,0.5,0.2C220.9,173.4,220.5,173.7,220.2,174z"/>
						<path d="M208,233.8L208,233.8c-0.1,0-0.2,0.1-0.4,0.1C207.8,233.9,207.9,233.8,208,233.8L208,233.8z"/>
						<path d="M207,234.4c0.3-0.2,0.5-0.4,0.7-0.5C207.5,234.1,207.2,234.2,207,234.4z"/>
						<path d="M206.2,235c0.3-0.2,0.5-0.4,0.7-0.6C206.8,234.6,206.5,234.8,206.2,235z"/>
						<path d="M199.7,180.1c-1.9,0.5-3.8,0.8-5.7,1.2c-0.7,0.1-1.5,0.2-2.2,0.3c0.7-0.1,1.5-0.2,2.2-0.3
							C195.9,180.9,197.8,180.6,199.7,180.1z"/>
						<path class="st0" d="M191.7,186.6c-0.4,0-0.9,0.1-1.3,0.1l-0.2-1.5c1.4-0.1,2.9-0.3,4.3-0.5c6.3-1,13-2.6,19.3-6
							c2.3-1.3,4.4-2.8,6.5-4.6c0.4,0.3,0.9,0.7,1.4,1.2c1.4,1.3,2.9,3.3,4.1,5.9c0.3,0.6,0.5,1.2,0.7,1.8c0.1,0.3,0.2,0.6,0.3,1
							c0.4,1.3,0.7,2.8,0.9,4.3c0,0.4,0.1,0.8,0.1,1.2c0.1,1.1,0,2.2-0.1,3.3c0,0.2,0,0.4-0.1,0.7c-0.1,1.1-0.3,2.1-0.7,3.2
							c0,0.2-0.1,0.3-0.2,0.5c-0.1,0.3-0.2,0.6-0.3,0.9c-1.2,3.3-3.5,6.5-6.5,9.1c-3,2.6-6.7,4.7-10.8,5.9
							c-4.1,1.3-8.6,1.5-13.2,1.1c-3.7-0.4-7.3-1.3-10.8-2.5c-2.1-0.7-4.1-1.6-6-2.5c-0.2-0.1-0.4-0.2-0.6-0.2
							c-1.1-0.5-2.2-1.1-3.2-1.6c-1.2-0.7-2.5-1.3-3.4-1.9c-0.2-0.2-0.4-0.3-0.6-0.5c-0.3-0.3-0.5-0.5-0.6-0.7c0,0,0,0,0-0.1
							c-0.1-0.1-0.1-0.2-0.1-0.3c0-0.1,0-0.1,0-0.1c0,0,0-0.1,0-0.1c0,0,0-0.1,0.1-0.1c0.2-0.2,0.6-0.5,1-1c0.4-0.5,0.7-1.1,0.8-1.7
							c0.3-2.4,1.7-4,3.4-5.4c1.7-1.5,3.7-2.5,5.6-3.3c3.8-1.6,7.5-2.4,10.5-3.1c6-1.2,9.6-1.6,9.6-2
							C201.6,186.4,198,186,191.7,186.6z"/>
						<path class="st0" d="M176.2,182.8c-5.5-0.1-10.9-1.5-14.1-5c-3.3-3.5-4.7-8.8-2.9-12.5c1.8-3.7,6.1-5.6,9.4-7.2
							c3.5-1.6,6.9-2.6,10.1-3.3c6.2-1.3,11.2-1,14.6-0.7c3.3,0.3,5.1,0.7,5.1,0.5c0-0.1-1.7-0.8-5-1.5c-2.4-0.4-5.8-0.8-9.9-0.6
							l-0.3-8.8c1,0,2.1-0.2,2.9-0.5c2.3-0.8,4.2-1.9,5.9-3c3.3-2,6.9-3.6,10.6-4.4c7.2-1.8,15.2-0.6,19.7,4.8
							c4.7,5.2,4.8,13.3,2.5,19.8c-1.1,3.3-2.9,6.3-5.1,8.8c-0.8,0.9-1.6,1.7-2.5,2.5c-1.6,1.5-3.4,2.7-5.2,3.7
							c-3.9,2.2-8.1,3.7-12.3,4.7c-1.9,0.5-3.8,0.8-5.7,1.1c-0.7,0.1-1.5,0.2-2.2,0.3C186.4,182.3,181.2,182.8,176.2,182.8z"/>
						<path d="M179.1,208.9c1.9,0.9,3.9,1.7,6,2.5C183.1,210.7,181.1,209.8,179.1,208.9c-0.2-0.1-0.4-0.2-0.6-0.2
							C178.8,208.8,179,208.9,179.1,208.9z"/>
						<path d="M173.6,245.4c-0.3-0.1-0.7-0.2-1-0.3c0.5-0.3,0.8-0.5,1-0.3C173.7,244.8,173.7,245.1,173.6,245.4z"/>
						<path d="M174.3,297.8c-0.4,0.2-0.9-0.5-1.8-1.6l0.2-0.2l1.5-0.8C174.7,296.7,174.6,297.7,174.3,297.8z"/>
						<path d="M172.1,300.7C172.1,300.7,172.1,300.7,172.1,300.7C172.1,300.6,172.1,300.7,172.1,300.7l0.1,1.5L172.1,300.7z"/>
						<path d="M172,300.6C172.1,300.6,172.1,300.6,172,300.6C172.1,300.6,172.1,300.6,172,300.6z"/>
						<path d="M171.5,204.6c0.2,0.2,0.4,0.3,0.6,0.5C171.8,205,171.6,204.8,171.5,204.6z"/>
						<path class="st0" d="M168.5,216.9c-0.1-1.2,0.3-2.3,0.4-3.2c0.6-1.7,0.8-2.8,0.6-3c0,0,0,0-0.1,0l1.2-1.6
							c1,0.7,1.9,1.1,2.9,1.7c1.3,0.7,2.6,1.4,3.9,2.1c5.4,2.6,11.5,4.8,18.1,5.5c5,0.5,10.2,0.2,14.8-1.3c2.9-0.9,5.7-2.2,8.1-3.8
							l0.8,1.3c-0.9,0.8-2.7,4.2-6.6,8.1c-2.3,2.2-5.4,4.6-9.2,6.2c-1.9,0.9-3.9,1.5-6.1,1.9c-1.3,0.2-2.6,0.3-3.9,0.3
							c-0.2,0-0.4,0-0.7,0c-0.2,0-0.5,0-0.8,0c-0.5,0-1-0.1-1.5-0.1c-0.6-0.1-1.2-0.1-1.8-0.2c-1.2-0.2-2.4-0.4-3.5-0.6
							c-2.8-0.6-5.5-1.5-7.9-2.5c-1.9-0.8-3.6-1.9-5-2.9c-1.3-1.2-2.5-2.4-3-3.7C168.7,219.5,168.5,218.1,168.5,216.9z"/>
						<path d="M170.8,203.8C170.8,203.8,170.8,203.9,170.8,203.8C170.9,203.9,170.8,203.8,170.8,203.8z"/>
						<path d="M166.8,203.2c0-1.3,0.7-2.6,1.7-3.2l0.4-0.3c0,0,0.1-0.1,0.1-0.1c0.2-0.7,0.4-1.5,0.7-2.3c0.4-0.7,0.8-1.4,1.2-2
							c0.2-0.3,0.5-0.6,0.7-0.9c0.1-0.1,0.2-0.3,0.4-0.4c0.6-0.7,1.3-1.3,2-1.8c2.2-1.6,4.4-2.6,6.6-3.4c3.7-1.3,7.1-1.9,9.9-2.2
							c0.4,0,0.9-0.1,1.3-0.1c6.3-0.6,9.9-0.2,9.9,0.2c0,0.4-3.6,0.8-9.6,2c-3,0.7-6.6,1.5-10.5,3.1c-1.9,0.8-3.9,1.8-5.6,3.3
							c-1.7,1.4-3.1,3-3.4,5.4c-0.1,0.6-0.4,1.2-0.8,1.7c-0.5,0.5-0.8,0.8-1,1c-0.1,0.1-0.1,0.1-0.1,0.1c0,0,0,0,0,0.1
							c0,0,0,0.1,0,0.1c0,0.1,0.1,0.2,0.1,0.3c0,0,0,0,0,0.1c0.1,0.2,0.3,0.5,0.6,0.7c0.2,0.2,0.4,0.3,0.6,0.5
							c0.8,0.6,2.1,1.3,3.4,1.9c1,0.6,2.1,1.1,3.2,1.6c0.2,0.1,0.4,0.2,0.6,0.3c1.9,0.9,3.9,1.7,6,2.5c3.4,1.2,7.1,2.1,10.8,2.5
							c4.6,0.5,9.1,0.2,13.2-1.1c4.1-1.2,7.8-3.3,10.8-5.9c3-2.6,5.2-5.8,6.5-9.1c0.1-0.3,0.2-0.6,0.3-0.9c0.1-0.2,0.1-0.3,0.2-0.5
							c0.3-1.1,0.5-2.1,0.7-3.2c0-0.2,0.1-0.4,0.1-0.7c0.1-1.1,0.1-2.3,0.1-3.3c0-0.4,0-0.8-0.1-1.2c-0.2-1.6-0.5-3-0.9-4.3
							c-0.1-0.3-0.2-0.7-0.3-1c-0.2-0.6-0.5-1.2-0.7-1.8c-1.2-2.6-2.7-4.6-4.1-5.9c-0.5-0.5-0.9-0.8-1.4-1.2c0.4-0.3,0.7-0.6,1-1h0
							l0,0c0.4,0.2,0.9,0.5,1.4,0.8c3,2.2,6.8,6.9,8,13.9c0.6,3.5,0.5,7.5-0.9,11.5c-1.4,4-3.9,7.8-7.2,10.9c-1.2,1.1-2.6,2.2-4,3.1
							c-2.5,1.6-5.2,2.9-8.1,3.8c-4.6,1.5-9.8,1.9-14.8,1.3c-6.6-0.7-12.7-2.9-18.1-5.5c-1.3-0.7-2.6-1.4-3.9-2.1
							c-0.9-0.6-1.9-1-2.9-1.7c-0.3-0.2-0.7-0.5-1-0.7C168.5,207.3,166.8,206,166.8,203.2z"/>
						<path d="M170,227.3c-1.5-1.6-2.9-3.3-3.5-5.3c-0.7-1.9-0.7-3.8-0.4-5.3c0-0.4,0.1-0.8,0.2-1.1c0.3-1,0.8-1.8,1-2.5v0
							c0.1-0.2,0.3-0.4,0.4-0.6c0.1-0.2,0.2-0.3,0.3-0.5c0.1-0.1,0.2-0.3,0.3-0.4c0.5-0.6,0.8-0.9,1-0.9c0,0,0,0,0.1,0
							c0.3,0.2,0,1.3-0.6,3c-0.1,0.9-0.5,2-0.4,3.2c0,1.2,0.1,2.6,0.8,3.9c0.5,1.3,1.7,2.5,3,3.7c1.4,1.1,3,2.1,5,2.9
							c2.4,1.1,5,1.9,7.9,2.5c1.1,0.2,2.3,0.5,3.5,0.6c0.6,0.1,1.2,0.2,1.8,0.2c0.5,0,1,0.1,1.5,0.1c0.3,0,0.5,0,0.8,0
							c0.2,0,0.4,0,0.7,0c1.4,0,2.6-0.1,3.9-0.3c2.2-0.3,4.2-1,6.1-1.9c3.8-1.6,6.9-4,9.2-6.2c3.9-3.9,5.7-7.3,6.6-8.1
							c0.2-0.1,0.3-0.2,0.4-0.1c0.3,0.1,0.1,1.2-0.6,3.1c-0.7,1.9-2,4.5-4.3,7.3c-1.9,2.4-4.6,4.9-8,6.9c-0.6,0.3-1.1,0.7-1.7,1
							c-2.1,1.1-4.5,2-7,2.4c-2.5,0.5-5.3,0.6-8,0.3c-5.3-0.6-10.2-2-14.4-4.1C173.5,230.1,171.7,228.8,170,227.3z"/>
						<path class="st0" d="M160.2,224.9c-0.1-3.2,1-5.5,1.9-7.1c0.8-1.2,1.4-1.9,1.5-2.3l2.8,0.1c-0.1,0.3-0.2,0.7-0.2,1.1
							c-0.3,1.5-0.3,3.4,0.4,5.3c0.6,2,1.9,3.7,3.5,5.3c1.6,1.5,3.5,2.8,5.6,3.9c4.2,2.2,9.1,3.5,14.4,4.1c2.6,0.3,5.4,0.2,8-0.3
							c2.6-0.5,4.9-1.3,7-2.4c0.6-0.3,1.2-0.6,1.7-1l1.2,2.2c-0.1,0-0.2,0.1-0.4,0.1c-0.2,0.1-0.4,0.3-0.7,0.5
							c-0.2,0.2-0.5,0.3-0.7,0.6c-1.5,1.1-3.8,2.8-7.1,4.3c-2.9,1.3-6.6,2.2-10.8,2.6c-1.8,0.2-3.8,0.3-5.8,0.2c-0.4,0-0.7,0-1.1,0
							c0,0,0,0,0,0c-1.1-0.1-2.2-0.1-3.3-0.3c0,0,0,0,0,0c-1.1-0.2-2.2-0.3-3.3-0.6c-0.9-0.2-1.7-0.5-2.5-0.7
							c-0.3-0.1-0.5-0.2-0.8-0.3c-0.5-0.2-1-0.4-1.6-0.7c-2.5-1.2-4.7-2.8-6.3-4.7C161.2,231.8,160.2,227.9,160.2,224.9z"/>
						<path d="M164.2,182.9c0.3-0.7,0.5-1.1,0.7-1.1c0.3,0,0.4,0.7,0.5,1.8C165,183.4,164.6,183.2,164.2,182.9z"/>
						<path d="M163.7,400.8c0,0.1,0,0.2,0.1,0.3C163.7,401,163.7,400.9,163.7,400.8L163.7,400.8z"/>
						<path d="M157.3,229.2c-0.2-1.6-0.2-3.2-0.1-4.6c0.4-3.8,2.2-6.6,3.7-8c1.5-1.4,2.7-1.6,2.8-1.4c0,0.1,0,0.1,0,0.3
							c-0.1,0.4-0.8,1.1-1.5,2.3c-0.9,1.5-1.9,3.9-1.9,7.1c0,3.1,1,6.9,3.4,9.9c1.6,1.9,3.8,3.5,6.3,4.7c0.5,0.2,1,0.5,1.6,0.7
							c0.3,0.1,0.5,0.2,0.8,0.3c0.8,0.3,1.7,0.5,2.5,0.7c1.1,0.3,2.2,0.5,3.3,0.6c0,0,0,0,0,0c1.1,0.1,2.2,0.2,3.3,0.3c0,0,0,0,0,0
							c0.4,0,0.7,0,1.1,0c2,0,4,0,5.8-0.2c4.2-0.4,7.9-1.3,10.8-2.6c3.4-1.4,5.7-3.2,7.1-4.3c0.3-0.2,0.5-0.4,0.7-0.6
							c0.3-0.2,0.5-0.4,0.7-0.5c0.2-0.1,0.3-0.1,0.4-0.1v0c0.1,0,0.1,0,0.1,0c0.2,0.2-0.1,1.3-1.4,2.8c-1.2,1.6-3.3,3.7-6.4,5.4
							c-3,1.8-7.1,3.2-11.6,3.9c-4.6,0.6-9.7,0.8-14.9-0.5c-0.1,0-0.2,0-0.2-0.1c0.1-0.3,0.1-0.5,0-0.6c-0.2-0.1-0.5,0-1,0.3
							c-4.8-1.3-9.1-4-12-7.7c-0.3-0.4-0.6-0.9-0.9-1.3c-0.6-0.9-1-1.8-1.4-2.7c-0.2-0.5-0.3-0.9-0.5-1.4c-0.1-0.5-0.3-0.9-0.4-1.4
							C157.4,230.1,157.3,229.7,157.3,229.2z"/>
						<path d="M158.7,47.1c0.2-0.1,0.4-0.1,0.6-0.1C159.1,47,158.9,47.1,158.7,47.1z"/>
						<path d="M160.2,179.7c-3.8-4.2-5.5-10.6-3-15.6c1.2-2.4,3.2-4.1,5.1-5.2c1.9-1.1,3.8-2,5.7-2.8c3.7-1.5,7.3-2.4,10.5-3
							c1.8-0.3,3.5-0.5,5.1-0.5c4.2-0.2,7.5,0.2,9.9,0.6c3.4,0.7,5.1,1.3,5,1.5c0,0.2-1.8-0.2-5.1-0.5c-3.3-0.3-8.4-0.5-14.6,0.7
							c-3.1,0.7-6.5,1.6-10.1,3.3c-3.4,1.6-7.6,3.5-9.4,7.2c-1.8,3.7-0.4,8.9,2.9,12.5c3.2,3.6,8.6,5,14.1,5
							c4.9,0,10.2-0.5,15.5-1.2c0.7-0.1,1.5-0.2,2.2-0.3c1.9-0.3,3.8-0.7,5.7-1.2c4.2-1,8.4-2.5,12.3-4.7c1.8-1,3.6-2.3,5.2-3.7
							l0.1,0.1c-0.1,0.3,1.1,0.8,2.9,2.3c-2,1.8-4.2,3.3-6.5,4.6c-6.3,3.5-13,5.1-19.3,6c-1.4,0.2-2.9,0.4-4.3,0.5
							c-4.8,0.5-9.4,0.8-14,0.8c-3.7-0.1-7.4-0.8-10.8-2.4c-0.1-1.1-0.2-1.7-0.5-1.8c-0.2,0-0.5,0.4-0.7,1.1
							C162.7,182.1,161.3,181,160.2,179.7z"/>
						<path d="M157.8,47.4L157.8,47.4C157.9,47.5,157.8,47.5,157.8,47.4L157.8,47.4z"/>
						<path class="st0" d="M154.3,413.8c0-1.6,0.1-3.1,0.3-4.4c0.2-1.3,0.7-2.6,1.2-3.5c1.1-1.9,3-3,4.5-3.2c0.3,0,0.4,0,0.6,0
							l0.3,0c0.1,0,0.1,0.2,0.1,0.2c0.1,0.1,0.3,1.1,0.4,1.7c0.3,1.2,0.6,1.9,0.9,1.9c0.3,0,0.6-0.7,0.7-1.9c0-0.2,0.1-0.5,0.1-0.7
							l4.7,0.7c-0.4,2.7-0.8,5.4-1.2,8.2c-1.1,6.9-2.3,13.7-3.6,20.4l-4.6-0.8c0.1-0.3,0-0.5-0.1-0.5c-0.3-0.2-0.8,0.3-1.6,0.2
							c-0.4,0-1-0.2-1.5-0.5c-0.6-0.3-0.8-0.7-1.1-1.5c-0.6-1.4-0.3-3.9-0.3-6.9c0-0.3,0-0.6,0-0.9c0-2.2,0-4.6,0-7
							C154.3,414.8,154.3,414.3,154.3,413.8z"/>
						<path d="M155.9,370.5C155.9,370.5,155.9,370.5,155.9,370.5C155.9,370.5,155.9,370.5,155.9,370.5z"/>
						<path d="M154,372.4c0.7-0.6,1.3-1.3,1.9-1.9C155.3,371.2,154.6,371.8,154,372.4z"/>
						<path d="M154.3,415.2c0,2.4,0,4.8,0,7C154.4,420,154.4,417.6,154.3,415.2z"/>
						<path d="M150.4,423.2c-0.1-2.9-0.3-6-0.3-9.5c0-1.1,0-2.2,0.2-3.3c0.3-2.4,0.9-4.8,2.4-6.9c2-2.9,5.1-4.3,7.9-4
							c0.7,0,1.6,0.3,2.2,0.7c0.3,0.2,0.6,0.3,0.9,0.5c0,0.1,0.1,0.2,0.1,0.3c0,0.3,0,0.5,0,0.7c0,1,0,1.6-0.1,2
							c0,0.3-0.1,0.5-0.1,0.7c-0.2,1.2-0.5,1.9-0.7,1.9c-0.3,0-0.6-0.7-0.9-1.9c-0.1-0.6-0.3-1.5-0.4-1.7c0-0.1,0-0.2-0.1-0.2
							l-0.3,0c-0.3,0-0.3,0-0.6,0c-1.5,0.1-3.4,1.3-4.5,3.2c-0.5,0.9-1,2.1-1.2,3.5c-0.2,1.3-0.3,2.8-0.3,4.4c0,0.5,0,1,0,1.5
							c0,2.4,0,4.8,0,7c0,0.3,0,0.6,0,0.9c0,2.9-0.3,5.5,0.3,6.9c0.3,0.8,0.6,1.2,1.1,1.5c0.5,0.3,1,0.5,1.5,0.5
							c0.8,0.1,1.3-0.4,1.6-0.2c0.1,0,0.1,0.2,0.1,0.5c0,0.1,0,0.1-0.1,0.2c-0.1,0.4-0.6,0.9-1.2,1.2c-0.7,0.3-1.7,0.5-2.8,0.2
							c-1-0.2-2.3-1.2-2.9-2.5c-0.7-1.2-1-2.6-1.2-4.1C150.6,426,150.5,424.7,150.4,423.2z"/>
						<path d="M154,372.4c-0.2,0.2-0.5,0.4-0.7,0.6C153.5,372.8,153.7,372.6,154,372.4z"/>
						<path d="M153.3,373.1c-0.2,0.2-0.5,0.4-0.7,0.6C152.8,373.5,153.1,373.3,153.3,373.1z"/>
						<path d="M150.8,386.5c0.1-1.6,0.1-3.1,0.2-4.7c4.7-3,7.9-4.7,8.3-4.1C159.8,378.4,156.4,382.1,150.8,386.5z"/>
						<path d="M151.2,374c0-1.6,0-3.1,0-4.7c7.1-5.9,12.1-10.3,12.8-9.6c0.6,0.6-2.5,5.2-8.1,10.8c0,0,0,0,0,0
							c-0.6,0.6-1.3,1.2-1.9,1.9c-0.2,0.2-0.5,0.4-0.7,0.6c-0.2,0.2-0.5,0.4-0.7,0.6c-0.5,0.4-0.9,0.9-1.4,1.3
							C151.2,374.7,151.2,374.3,151.2,374z"/>
						<path d="M151.1,360.9c0-2.1-0.1-4.1-0.2-6.1c3.4-3.7,6.3-7.1,8.6-9.9c3.3-4.1,5.4-6.7,6-6.4c0.5,0.3-0.7,3.6-3.6,8.3
							C159.5,350.7,155.8,355.8,151.1,360.9z"/>
						<path d="M151.1,375c0.5-0.4,1-0.9,1.4-1.3C152.1,374.1,151.6,374.6,151.1,375L151.1,375z"/>
						<path d="M163.9,328.3c-3,5.4-7.6,12.2-13.4,19.2c-0.1-2.1-0.2-4.2-0.4-6.2c4.5-5.5,8.3-10.7,11.3-14.7c4-5.5,6.6-9,7.1-8.7
							c0.1,0,0.1,0.1,0.1,0.3C168.6,319.2,167,323,163.9,328.3z"/>
						<path class="st0" d="M149.2,410.4c0.4-4.1,0.7-8.4,1-12.7c0.2-3.6,0.5-7.3,0.6-11.1c5.6-4.5,9-8.1,8.5-8.8
							c-0.4-0.6-3.6,1.1-8.3,4.1c0.1-2.3,0.1-4.6,0.1-6.8c0.5-0.4,1-0.9,1.4-1.3c0.2-0.2,0.5-0.4,0.7-0.6c0.2-0.2,0.5-0.4,0.7-0.6
							c0.7-0.6,1.3-1.2,1.9-1.9c0,0,0,0,0,0c5.6-5.6,8.7-10.2,8.1-10.8c-0.7-0.7-5.8,3.7-12.8,9.6c0-0.2,0-0.3,0-0.5
							c0-2.3,0-4.5,0-6.7c0-0.4,0-0.8,0-1.3c4.7-5.1,8.4-10.1,10.8-14.2c2.8-4.7,4-8,3.6-8.3c-0.6-0.3-2.6,2.3-6,6.4
							c-2.3,2.8-5.1,6.2-8.6,9.9c0-1.5-0.1-2.9-0.2-4.4c0-1-0.1-1.9-0.2-2.8c5.8-7,10.4-13.8,13.4-19.2c3.1-5.3,4.7-9.1,4.7-10.2
							l5-0.2c0,0.9,0.1,1.9,0.1,2.8c0.1,3.1,0.2,6.2,0.3,9.4c0.2,12.7-0.4,26.1-1.6,39.9c-1,11.2-2.4,22.7-4.1,34.4l-4.7-0.7
							c0.1-0.5,0.1-1,0.1-2c0-0.2,0-0.5,0-0.7c0-0.1,0-0.2-0.1-0.3h0c-0.3-0.2-0.6-0.3-0.9-0.5c-0.6-0.3-1.5-0.7-2.2-0.7
							c-2.8-0.3-5.8,1.1-7.9,4c-1.4,2-2.1,4.4-2.4,6.9L149.2,410.4z"/>
						<path class="st0" d="M146.2,308.9c3.2-0.5,6.4-1.1,9.7-2.1c2.5-0.6,5-1.5,7.6-2.4c1.2-0.5,2.5-1,3.8-1.6
							c1.1-0.5,2.3-1.1,3.5-1.6l0.7-0.3l0.4-0.2c0.1-0.1,0.1-0.1,0.2-0.1c0,0,0,0,0,0c0,0,0,0,0,0.1l0.1,1.5l0.1,0.6
							c0.3,2.9,0.6,5.9,0.9,8.8c0.1,1.5,0.3,3,0.4,4.6c0,0.6,0.1,1.2,0.1,1.8l-5,0.2c0-0.1,0-0.2-0.1-0.3c-0.5-0.3-3,3.1-7.1,8.7
							c-3,4.1-6.8,9.2-11.3,14.7c-0.1-0.7-0.1-1.4-0.2-2.1c-0.1-0.9-0.1-1.8-0.2-2.7c-0.1-1.4-0.2-2.7-0.3-4.1
							c-0.1-1.3-0.3-2.7-0.4-4c-0.2-1.7-0.4-3.5-0.6-5.2c-0.2-1.7-0.4-3.3-0.6-4.9c0,0,0-0.1,0-0.1
							C147.2,315,146.7,311.9,146.2,308.9z"/>
						<path d="M149.4,332.4c0.1,1.3,0.2,2.7,0.3,4.1C149.6,335.1,149.5,333.7,149.4,332.4z"/>
						<path d="M148.9,328.4c0.2,1.3,0.3,2.6,0.4,4C149.3,331,149.1,329.7,148.9,328.4c-0.2-1.7-0.4-3.5-0.6-5.2
							C148.5,324.9,148.7,326.7,148.9,328.4z"/>
						<path d="M148.1,421.3c0.1-0.6,0.1-1.1,0.2-1.7c0.2-1.4,0.3-2.7,0.5-4.1c-0.1,1.4-0.3,2.8-0.5,4.1
							C148.2,420.1,148.1,420.7,148.1,421.3z"/>
						<path d="M151.1,369.4c-1.3,1.1-2.7,2.3-4.2,3.5c0-2.6,0-5.2,0-7.7c0.6-0.6,1.1-1.1,1.7-1.7c0.8-0.8,1.7-1.7,2.5-2.6
							c0,0.4,0,0.8,0,1.3c0,2.2,0.1,4.4,0,6.7C151.1,369,151.1,369.2,151.1,369.4z"/>
						<path d="M148.1,421.3c-0.1,1-0.2,2-0.3,3C147.8,423.3,147.9,422.3,148.1,421.3z"/>
						<path d="M146.9,365.1c0-2,0-4-0.1-6c1.5-1.5,2.8-2.9,4.1-4.4c0.1,2,0.1,4.1,0.2,6.1c-0.8,0.8-1.6,1.7-2.5,2.6
							C148,364,147.5,364.5,146.9,365.1z"/>
						<path d="M148.1,350.4c-0.3,0.3-0.6,0.6-0.8,0.9C147.5,351.1,147.8,350.8,148.1,350.4C148.1,350.4,148.1,350.4,148.1,350.4
							C148.1,350.4,148.1,350.4,148.1,350.4z"/>
						<path d="M146.6,384.6c0.1-2,0.1-4,0.2-6v0c0.4-0.3,0.9-0.7,1.4-1.1c1-0.8,2-1.7,3-2.5c0,2.3-0.1,4.6-0.1,6.8
							C149.6,382.6,148.2,383.6,146.6,384.6z"/>
						<path d="M146.5,350.6c0-1.6-0.1-3.1-0.2-4.7c1.3-1.6,2.6-3.1,3.8-4.6c0.2,2.1,0.3,4.1,0.4,6.2c-0.2,0.2-0.4,0.5-0.6,0.7
							c-0.2,0.3-0.5,0.6-0.7,0.9c-0.4,0.4-0.7,0.8-1.1,1.3c0,0,0,0-0.1,0.1c-0.3,0.3-0.6,0.6-0.8,0.9c-0.2,0.3-0.5,0.5-0.7,0.8
							C146.5,351.6,146.5,351.1,146.5,350.6z"/>
						<path d="M146.8,378.6c0-1.5,0.1-3.1,0.1-4.6v-1.1c1.5-1.2,2.9-2.4,4.2-3.5c0,1.5,0,3.1,0,4.7c0,0.3,0,0.6,0,0.9v0
							c-1,0.8-1.9,1.7-3,2.5C147.7,377.9,147.2,378.2,146.8,378.6z"/>
						<path d="M146.8,357.4c0-0.9,0-1.8-0.1-2.7c0-0.8-0.1-1.7-0.1-2.5c0.2-0.3,0.5-0.5,0.7-0.8c0.3-0.3,0.6-0.6,0.8-0.9
							c0,0,0,0,0.1-0.1c0.4-0.4,0.7-0.8,1.1-1.3c0.2-0.3,0.5-0.6,0.7-0.9c0.2-0.2,0.4-0.5,0.6-0.7c0.1,1,0.1,1.9,0.2,2.8
							c0.1,1.5,0.1,2.9,0.2,4.4c-1.3,1.4-2.6,2.9-4.1,4.4C146.8,358.5,146.8,357.9,146.8,357.4z"/>
						<path d="M146.6,384.6c1.5-1,3-2,4.4-2.8c0,1.6-0.1,3.1-0.2,4.7c-1.4,1.1-2.8,2.2-4.4,3.3C146.5,388.1,146.6,386.4,146.6,384.6
							z"/>
						<path d="M148,503.1c-0.8,3-1.5,6-2.3,8.9C146.5,509.1,147.2,506.2,148,503.1z"/>
						<path d="M146.7,354.7c0,0.9,0,1.8,0.1,2.7C146.7,356.4,146.7,355.5,146.7,354.7z"/>
						<path d="M144,318.8c-0.4-3.3-0.8-6.4-1.3-9.5c1.2-0.1,2.4-0.3,3.6-0.4c0.5,3,1,6.1,1.5,9.3c0,0,0,0.1,0,0.1
							c0.2,1.6,0.4,3.3,0.6,4.9c0.2,1.7,0.4,3.4,0.6,5.2c0.2,1.3,0.3,2.6,0.5,4c0.1,1.3,0.2,2.7,0.3,4.1c0.1,0.9,0.1,1.8,0.2,2.7
							c0.1,0.7,0.1,1.4,0.2,2.1c-1.2,1.5-2.5,3-3.8,4.6c-0.1-1.1-0.1-2.2-0.2-3.2c0-0.7-0.1-1.4-0.1-2.1c0-0.3,0-0.7-0.1-1
							c-0.1-0.9-0.1-1.8-0.2-2.7c-0.1-1.8-0.2-3.6-0.4-5.3c-0.1-0.9-0.2-1.7-0.3-2.6c-0.2-1.7-0.4-3.5-0.5-5.1
							C144.3,322.1,144.1,320.4,144,318.8z"/>
						<path d="M145.1,411.2c0.1-1.8,0.3-3.6,0.4-5.4C145.4,407.6,145.2,409.4,145.1,411.2z"/>
						<path d="M158.4,287.6c-5.1-1.1-10.1-0.8-13.7-0.8c-1,0-1.9,0-2.8,0c-0.2-0.8-0.4-1.5-0.6-2.3c0.8-0.3,1.8-0.5,3-0.8
							c3.6-0.8,9-1.6,14.9-0.4c6,1.2,10.8,4.8,13.1,8.2c0.9,1.4,1.5,2.7,1.9,3.7l-1.5,0.8l-0.2,0.2c-0.6-0.7-1.4-1.6-2.4-2.6
							C167.6,291.2,163.5,288.7,158.4,287.6z"/>
						<path d="M145.1,411.2c-0.2,2.7-0.5,5.3-0.7,8C144.6,416.5,144.8,413.9,145.1,411.2z"/>
						<path d="M144.5,323.7c0.2,1.7,0.4,3.4,0.5,5.1c0.1,0.9,0.2,1.7,0.3,2.6c-0.1-0.9-0.2-1.7-0.3-2.6
							C144.8,327.1,144.7,325.4,144.5,323.7z"/>
						<path class="st0" d="M145.7,305.7c-0.8-5-1.9-9.7-2.7-14c-0.3-1.7-0.7-3.4-1.1-4.9c0.8,0,1.7,0,2.8,0c3.6,0,8.6-0.2,13.7,0.8
							c5.1,1.1,9.2,3.6,11.7,5.9c1,1,1.8,1.9,2.4,2.6l-2.7,1.5c-0.6,0.3-0.9,0.5-1.1,0.6l-0.9,0.4l-1.8,0.9c-1.2,0.6-2.4,1-3.6,1.6
							c-2.4,0.9-4.8,1.8-7.2,2.5C151.9,304.5,148.8,305.2,145.7,305.7z"/>
						<path d="M142.7,309.3c-0.1-1-0.3-2.1-0.4-3.1c1.1-0.1,2.3-0.3,3.5-0.5c0.1,0.8,0.3,1.7,0.4,2.5c0,0.2,0.1,0.3,0.1,0.5
							c0,0.1,0,0.1,0,0.2C145,309.1,143.8,309.2,142.7,309.3L142.7,309.3z"/>
						<path d="M142.3,524.9c-0.4,1.4-0.7,2.8-1.1,4.2c-0.7,2.7-1.4,5.4-2.2,8.1c0.7-2.6,1.4-5.3,2.1-8.1
							C141.6,527.7,142,526.3,142.3,524.9z"/>
						<path d="M140,292.3c-0.3-2.1-0.7-4-1.1-5.9c0.5,0.2,1.5,0.3,3,0.4c0.4,1.6,0.7,3.2,1.1,4.9c0.8,4.3,1.9,9,2.7,14
							c-1.2,0.2-2.3,0.4-3.5,0.5C141.6,301.2,140.6,296.6,140,292.3z"/>
						<path d="M138.9,286.4C138.9,286.4,138.9,286.3,138.9,286.4c-0.1-0.3-0.1-0.5-0.1-0.7c0.4-0.4,1.3-0.8,2.6-1.2
							c0.2,0.8,0.4,1.5,0.6,2.3C140.4,286.7,139.4,286.6,138.9,286.4z"/>
						<path d="M138.8,285.7c0,0.2,0.1,0.4,0.1,0.7c-0.2-0.1-0.3-0.2-0.3-0.3C138.5,285.9,138.6,285.8,138.8,285.7z"/>
						<path d="M137.9,474.4c-0.2-0.1-0.1-0.7-0.2-1.5c0.2-1.5,0.4-3.1,0.6-4.7c0.8,1.4,1,2.8,0.9,3.8
							C139,473.8,138.1,474.5,137.9,474.4z"/>
						<path d="M136.6,480.6c0.3-2.2,0.7-4.9,1.1-7.8c0.1,0.9,0,1.4,0.2,1.5c0.2,0.1,1.1-0.5,1.3-2.5c0.1-1-0.1-2.4-0.9-3.8
							c0.5-3.7,1.1-7.8,1.7-12.2c0.7-5.2,1.5-10.9,2.2-17.1c0.8-6.1,1.5-12.7,2.2-19.6c0.2-2.6,0.5-5.3,0.7-8
							c0.1-1.8,0.3-3.6,0.4-5.4c0.2-2.7,0.4-5.5,0.6-8.4c0.1-2.5,0.3-5,0.4-7.5c1.6-1.1,3-2.3,4.4-3.3c-0.1,3.8-0.3,7.5-0.6,11.1
							c-0.3,4.3-0.6,8.6-1,12.7c-0.2,1.7-0.3,3.4-0.5,5.1c-0.1,1.4-0.3,2.8-0.5,4.1c-0.1,0.6-0.1,1.1-0.2,1.7c-0.1,1-0.2,2-0.3,3
							c-0.6,5.3-1.3,10.3-2,15c-0.8,6.2-1.9,11.8-2.7,17.1c-1.8,10.4-3.5,18.8-4.8,24.5c-1.2,5.7-2.1,8.9-2.4,8.9
							C135.5,489.7,135.8,486.5,136.6,480.6z"/>
						<path d="M135,392.5c0.5-0.4,1.1-0.8,1.7-1.2C136.1,391.7,135.5,392.1,135,392.5z"/>
						<path d="M134.2,464.5c0.3,0.1,0.7,0.3,1,0.4C134.9,464.7,134.5,464.6,134.2,464.5z"/>
						<path d="M135.2,267.9c-1.2-5.8-1.8-9-1.5-9.1c0.3,0,1.4,3.1,3,8.7c0.9,2.8,1.9,6.3,2.9,10.4c0.5,2.1,1.1,4.3,1.7,6.7
							c-1.3,0.4-2.2,0.8-2.6,1.2c-0.5-2.6-1-5-1.4-7.3c-0.3-1.6-0.6-3-0.9-4.4c-0.2-0.9-0.4-1.8-0.6-2.6
							C135.7,270.1,135.4,268.9,135.2,267.9z"/>
						<path d="M134.2,464.5c-0.1,0-0.2-0.1-0.4-0.1C133.9,464.4,134.1,464.4,134.2,464.5z"/>
						<path d="M133.1,464.2c-0.2,0-0.4-0.1-0.6-0.1C132.7,464.1,132.9,464.1,133.1,464.2z"/>
						<path d="M132.6,464.1c-0.7-0.1-1.5-0.1-2.3,0c-0.2,0-0.5,0.1-0.7,0.1c0.2-0.1,0.5-0.1,0.7-0.1C131,464,131.8,464,132.6,464.1z
							"/>
						<path d="M132.3,226.8c0,0,0.1,0,0.1,0.1C132.4,226.8,132.4,226.8,132.3,226.8z"/>
						<path d="M132.4,226.4c0.2-0.3,0.8-0.8,1.6-1.4c0.6-0.4,1.3-0.9,2.2-1.5c0.8-0.6,1.8-1.2,2.8-2c2.1-1.5,4.4-3.4,6.8-5.7
							c1.2-1.2,2.5-2.4,3.6-3.8c1.2-1.3,2.4-2.9,3.5-4.4c1.1-1.6,2.2-3.1,3.1-4.7c1-1.5,1.7-3.2,2.5-4.6c1.5-3,2.6-5.9,3.4-8.3
							c0.5-1.2,0.8-2.4,1.1-3.4c0.3-1,0.6-1.8,0.8-2.6c0.1-0.4,0.2-0.8,0.4-1.1c0.4,0.2,0.8,0.5,1.2,0.7c0,0.2,0,0.5,0,0.7
							c0,0.8,0,1.7-0.1,2.8c-0.1,1.1-0.2,2.3-0.5,3.7c-0.5,2.8-1.4,5.9-2.8,9.3c-0.7,1.6-1.5,3.4-2.5,5.1c-0.9,1.7-2.1,3.4-3.3,5.2
							c-1.3,1.6-2.5,3.3-3.9,4.7c-1.3,1.5-2.7,2.7-4,3.9c-2.8,2.3-5.4,4.1-7.8,5.3c-1.1,0.7-2.3,1.1-3.3,1.5c-0.7,0.3-1.4,0.5-2,0.7
							c-0.2,0-0.4,0.1-0.6,0.1c-1.1,0.3-1.9,0.4-2.2,0.3c0,0-0.1,0-0.1-0.1c0,0,0,0-0.1-0.1c0-0.1,0-0.1,0-0.2
							C132.3,226.5,132.3,226.4,132.4,226.4z"/>
						<path d="M129.8,396.3c0.7-0.5,1.4-1,2.1-1.6C131.1,395.3,130.4,395.8,129.8,396.3z"/>
						<path d="M128.1,464.6c0.5-0.2,1-0.3,1.4-0.4C129.1,464.3,128.6,464.4,128.1,464.6z"/>
						<path d="M126.3,255.9c-0.1-0.6,2.6-1.7,7.2-2.3c4.6-0.7,10.9-0.6,17.6-1.1c6.6-0.5,12.4-2.1,16.2-4.1c2.5-1.3,4.3-2.7,5.3-3.3
							c0.3,0.1,0.7,0.2,1,0.3c-0.3,1.1-1.7,3.4-4.7,5.7c-3.9,3-10.3,5.4-17.5,5.9c-7,0.5-13.2-0.1-17.6-0.2h-0.1
							C129.2,256.5,126.4,256.5,126.3,255.9z"/>
						<path d="M127.8,389.2c-0.6-1.1,7.9-7.1,17.7-15.2c0.5-0.4,1-0.8,1.4-1.1v1.1c0,1.5-0.1,3.1-0.1,4.6v0
							C137.2,386.2,128.3,390.2,127.8,389.2z"/>
						<path d="M125.3,399.8c0.3-0.2,0.6-0.5,0.9-0.8C125.9,399.3,125.6,399.5,125.3,399.8z"/>
						<path d="M124.1,400.8c0.2-0.2,0.5-0.4,0.7-0.7C124.6,400.4,124.3,400.6,124.1,400.8z"/>
						<path d="M123.8,379.7c-0.3-0.6,2.3-2.6,6.4-5.9c4.2-3.3,9.7-7.9,15.4-13.6c0.4-0.4,0.7-0.7,1.1-1.1c0.1,2,0.1,4,0.1,6
							c-5.4,5-10.7,8.9-14.9,11.3C127.3,379.2,124.1,380.2,123.8,379.7z"/>
						<path d="M122.8,402.7c-0.2-0.3,0.3-1,1.3-1.9c0.2-0.2,0.5-0.4,0.7-0.7c0.1-0.1,0.3-0.2,0.4-0.4c0.3-0.2,0.6-0.5,0.9-0.8
							c1-0.8,2.2-1.7,3.5-2.7c0.7-0.5,1.4-1,2.1-1.6c1-0.7,2-1.5,3.1-2.2c0.5-0.4,1.1-0.8,1.7-1.2c1.1-0.8,2.3-1.6,3.5-2.4
							c2.2-1.5,4.4-3,6.4-4.3c0,1.8-0.1,3.5-0.2,5.2c-1.2,0.9-2.5,1.8-3.9,2.8C132.4,399.6,123.4,403.8,122.8,402.7z"/>
						<path d="M117,491.2c-0.8-2.3-0.8-4.7-0.5-6.9c0.3-2.3,1-4.4,1.5-6.5c0.7-2.1,1.4-4.2,2.5-6.2c1-2,2.5-3.8,4.2-5.1
							c1-0.8,2.2-1.5,3.4-1.9c0.5-0.2,1-0.3,1.4-0.4c0.2,0,0.5-0.1,0.7-0.1c0.8-0.1,1.5-0.1,2.3,0c0.2,0,0.4,0,0.6,0.1
							c0.2,0,0.5,0.1,0.7,0.2c0.1,0,0.3,0.1,0.4,0.1c0.3,0.1,0.7,0.3,1,0.4c0.2,0.1,0.3,0.2,0.5,0.3c1.2,0.8,2.1,1.9,2.6,2.9
							c-0.2,1.7-0.5,3.3-0.6,4.7c0-0.2-0.1-0.5-0.1-0.8c-0.3-1.3-1.4-3.1-3.3-4.1c-1.8-0.9-4.7-0.3-7,1.8c-2.3,2-3.8,5.4-5,9.5
							c-1.3,4.1-2.3,8-1.5,10.6c0.4,1.3,1.1,2.1,2.4,3c1.3,0.8,2.8,1.9,3.8,3c2.1,2.2,3.2,4.5,3.7,6c0.5,1.6,0.5,2.6,0.2,2.7
							c-0.6,0.3-1.9-3.1-6-6.3c-1.1-0.8-2.1-1.4-3.6-2.2C119.8,495.2,117.8,493.5,117,491.2z"/>
						<path d="M128.7,369.2c-5.4,4.3-9.1,6.4-9.5,5.9c-0.4-0.5,2.7-3.5,7.5-8.3c4.8-4.8,11.4-11.5,18.2-19.3
							c0.5-0.5,0.9-1.1,1.4-1.6c0.1,1.6,0.2,3.1,0.2,4.7c0,0.5,0,1,0.1,1.6C140.2,359.4,133.7,365.3,128.7,369.2z"/>
						<path d="M118.1,616.7c-0.3,0.1-0.6,0.2-0.8,0.2c0.1-0.4,0.2-0.8,0.3-1.3c0.7-2.8,1.7-6.8,3.2-12.1c2.9-10.4,7.1-25.5,12.2-44
							c2-7,4-14.5,6.1-22.4c0.7-2.6,1.4-5.3,2.2-8.1c0.4-1.4,0.7-2.8,1.1-4.2c1.1-4.2,2.2-8.5,3.4-12.9c0.8-2.9,1.5-5.9,2.3-8.9
							c0.8-3,1.5-6.1,2.3-9.2c3-12.4,6-25.5,8.9-39c1.5-7.1,3-14.4,4.3-21.8c1.3-6.7,2.5-13.5,3.6-20.4c0.4-2.7,0.9-5.5,1.2-8.2
							c1.7-11.7,3.1-23.2,4.1-34.4c1.2-13.8,1.8-27.2,1.6-39.9c-0.1-3.2-0.2-6.3-0.3-9.4c0-0.9,0-1.9-0.1-2.8c0-0.6,0-1.2-0.1-1.8
							c-0.1-1.5-0.3-3.1-0.4-4.6c-0.3-3-0.6-5.9-0.9-8.8l-0.1-0.6l-0.1-1.5c0,0,0,0,0-0.1c0,0,0,0,0,0c0,0-0.1,0-0.2,0.1l-0.4,0.2
							l-0.7,0.3c-1.2,0.6-2.4,1.1-3.5,1.6c-1.3,0.6-2.6,1.1-3.8,1.6c-2.5,1-5,1.8-7.6,2.4c-3.3,0.9-6.5,1.6-9.7,2.1
							c0-0.1,0-0.2,0-0.2c0-0.2,0-0.3-0.1-0.5c-0.1-0.9-0.3-1.7-0.4-2.5c3.1-0.5,6.2-1.2,9.4-2.1c2.4-0.7,4.8-1.6,7.2-2.5
							c1.2-0.5,2.4-1,3.6-1.6l1.8-0.9l0.9-0.4c0.3-0.1,0.6-0.3,1.1-0.6l2.7-1.5c0.9,1.1,1.4,1.8,1.8,1.6c0.3-0.1,0.4-1.1-0.1-2.6h0
							l0.8-0.4c0.1,0.3,0.1,0.7,0.1,1c0.3,2.2,0.5,4.4,0.7,6.6c0.3,2.9,0.7,6,1,9c0.1,1.5,0.3,3,0.5,4.6c0.1,1.6,0.1,3.1,0.2,4.7
							c0.1,3.1,0.2,6.3,0.4,9.5c0.3,12.9-0.2,26.4-1.3,40.4c-1.2,14-3,28.3-5.3,43c-2.4,14.6-5.1,28.8-8,42.4
							c-3,13.6-6.1,26.7-9.2,39.1c-3.1,12.4-6.3,24.1-9.4,35.1c-3,11-6,21.1-8.8,30.4c-5.5,18.5-10.2,33.4-13.5,43.7
							c-1.6,5.1-3,9.1-3.9,11.8C118.3,616.2,118.1,616.5,118.1,616.7z"/>
						<path d="M118.1,616.7c-0.8,2.1-1.2,3.3-1.4,3.2c-0.1,0,0.1-1,0.5-3C117.5,616.9,117.8,616.8,118.1,616.7z"/>
						<path d="M111.7,343.7l1.1,0.3L111.7,343.7c-0.1,0-0.1,0-0.2-0.1C111.6,343.7,111.7,343.7,111.7,343.7z"/>
						<path d="M111.2,343.5c0.1,0,0.2,0.1,0.3,0.1C111.4,343.6,111.3,343.6,111.2,343.5z"/>
						<path d="M111.1,343.5L111.1,343.5c0,0,0,0-0.1-0.1C111.1,343.4,111.1,343.5,111.1,343.5z"/>
						<path d="M105.3,533.4c0-0.4,0-0.8-0.1-1.2C105.2,532.6,105.2,533,105.3,533.4z"/>
						<path d="M105,537.3c0.1-0.7,0.2-1.5,0.2-2.2C105.2,535.8,105.1,536.5,105,537.3z"/>
						<path d="M104.7,529.9c0.1,0.4,0.2,0.8,0.3,1.2C104.9,530.7,104.8,530.3,104.7,529.9z"/>
						<path d="M102.3,547.4c-0.4,1.6-0.8,3.2-1.2,4.8C101.5,550.6,101.9,549,102.3,547.4z"/>
						<path d="M100.3,530.4c0.1,0.2,0.2,0.4,0.3,0.6c0.1,0.2,0.1,0.4,0.2,0.7c-0.1-0.2-0.1-0.5-0.2-0.7
							C100.5,530.7,100.4,530.5,100.3,530.4z"/>
						<path d="M98,342.5c0-0.4,0.1-0.7,0.2-1c0.4-1.2,1.1-1.5,1.2-1.4c0.2,0.2,0.1,0.7,0.2,1.6c0.1,0.9,0.5,2.1,1.6,3.1
							c1,0.9,2.4,1.4,3.6,0.7c0.1,0,0.1-0.1,0.2-0.1c0.1,0,0.1-0.1,0.2-0.1c0.7-0.5,1.3-1.2,1.6-2.2c0.1-0.3,0.2-0.5,0.3-0.8
							c0.1-0.3,0.1-0.8,0.1-1.1l0-0.6c0-0.3-0.1-0.6-0.1-0.8c-0.6-2.5-1.1-5.1-1.7-7.7c1,1.1,2,2.3,3.1,3.4c0.6,0.7,1.3,1.5,1.8,2
							c0.5,0.5,1.1,1.2,1.6,1.6c0.7,0.4,0.8,0.3,1,0.4l0.6,0.1c0.4,0.1,0.8,0.1,1.3,0.1c1.4,0,3-0.5,4.3-1.3
							c1.3-0.7,2.4-1.7,3.2-2.8c1.8-2.4,2.7-5.1,3.6-7.5c1.5-4.8,2.7-7.9,3.3-7.7c0.1,0,0.1,0.1,0.1,0.1c0.2,0.5,0.2,1.9,0,4.3
							c-0.1,1.2-0.3,2.6-0.5,4.1c-0.4,2.6-1.2,5.9-3.2,9.1c-1,1.7-2.6,3.2-4.4,4.3c-1.8,1.1-3.9,1.8-6.2,1.9c-0.7,0-1.5,0-2.2-0.2
							l-1.1-0.3c-0.1,0-0.1,0-0.2-0.1c-0.1,0-0.2-0.1-0.3-0.1c0,0-0.1,0-0.1-0.1c0,0,0,0-0.1-0.1c0,0,0,0,0,0c0,0,0,0,0,0.1
							c-0.1,0.5-0.3,0.9-0.5,1.3c-0.8,1.6-2,3-3.5,3.8c-1.5,0.8-3.2,1-4.7,0.4c-1.4-0.5-2.4-1.4-3.1-2.3
							C98.2,345.2,97.9,343.7,98,342.5z"/>
						<path d="M95.5,560.8c0.7-6.2,2.1-12.9,4.2-19.7c0.7-2.5,1.3-5,1.4-7.3c0-0.8-0.1-1.6-0.2-2.3c-0.1-0.2-0.1-0.5-0.2-0.7
							c-0.1-0.2-0.2-0.4-0.3-0.6c-0.1-0.2-0.2-0.3-0.3-0.5c-0.7-0.7-1.7-1.5-2.7-2.3c0.7-1,1.4-1.9,2.2-2.9c0.2-0.2,0.4-0.5,0.6-0.7
							l0.3-0.4l0.7-0.7c0.9-0.9,1.9-1.8,2.9-2.5c2-1.5,4.1-2.6,6.1-3.4c1-0.4,2.1-0.7,3.1-0.9c1-0.2,2.3-0.4,3.6,0.1
							c2.6,1,3.4,3.4,3.7,5.1c0.3,1.8,0,3.4-0.2,4.5c-0.3,1.2-0.5,2.2-0.6,3c-0.2,1.6-0.1,2.5-0.4,2.6c-0.2,0.1-0.8-0.8-1-2.6
							c-0.3-1.8,0.3-4.5-0.3-7c-0.4-1.3-1.1-2.5-2.1-2.6c-0.9-0.3-2.8,0.4-4.5,1.2c-1.7,0.8-3.5,1.8-5.1,3.2
							c-0.8,0.6-1.6,1.4-2.4,2.2l-0.6,0.6l-0.3,0.3l0,0c0,0,0,0.1,0,0.1c0,0,0.1,0,0.2,0.2c0.5,0.7,1,1.4,1.2,2.2
							c0.1,0.2,0.1,0.4,0.2,0.6c0.1,0.4,0.2,0.8,0.3,1.2c0.1,0.4,0.1,0.8,0.2,1.2c0,0.4,0.1,0.8,0.1,1.2c0,0.2,0,0.4,0,0.6
							c0,0.4,0,0.8,0,1.1c0,0.7-0.1,1.5-0.2,2.2c-0.3,1.8-0.7,3.5-1.2,5.2c-0.5,1.6-1,3.3-1.4,4.9c-0.4,1.6-0.8,3.2-1.2,4.8
							c-2.1,9.5-3,18.2-3.3,25c-0.1,2.2,0.1,4.1,0.8,5.4c0.6,1.3,1.7,1.8,2.7,1.9c1,0.1,1.8-0.2,2.2-0.5c0.4-0.4,0.6-0.7,0.8-0.7
							c0.1,0,0.2,0.5-0.1,1.2c-0.3,0.7-1.4,1.6-2.8,1.8c-0.7,0.1-1.6,0-2.5-0.3c-0.6-0.2-1.1-0.6-1.6-1.1c-0.1-0.1-0.2-0.2-0.3-0.3
							c-0.2-0.2-0.3-0.4-0.5-0.6c-0.6-0.9-1.1-2-1.3-3.1c-0.2-0.9-0.3-1.7-0.4-2.6c0-0.3,0-0.6-0.1-0.9
							C94.7,572.6,94.8,567,95.5,560.8z"/>
						<path d="M94.9,578.1c0.1,0.9,0.2,1.8,0.4,2.6C95.1,579.9,95,579,94.9,578.1z"/>
						<path class="st0" d="M90.3,291.4c1.1,2.6,3.6,6.1,7.8,9.1c4.4,3.2,10.6,5.7,17.9,7.4c4.2,1,8.8,1.7,13.7,1.9l-0.5,10.7
							c-0.6-0.2-1.8,2.9-3.3,7.7c-0.8,2.4-1.8,5.1-3.6,7.5c-0.8,1.1-1.9,2.1-3.2,2.8c-1.3,0.7-2.8,1.3-4.3,1.3c-0.5,0-0.9,0-1.3-0.1
							l-0.6-0.1c-0.1-0.1-0.3,0-1-0.4c-0.5-0.4-1.1-1.1-1.6-1.6c-0.5-0.5-1.2-1.3-1.8-2c-1.1-1.1-2.1-2.3-3.1-3.4
							c0.6,2.6,1.1,5.2,1.7,7.7c0,0.3,0.1,0.6,0.1,0.8l0,0.6c0,0.3,0,0.8-0.1,1.1c-0.1,0.3-0.1,0.5-0.3,0.8c-0.4,1-1,1.7-1.6,2.2
							c-0.1,0-0.1,0.1-0.2,0.1c-0.1,0-0.1,0.1-0.2,0.1c-1.3,0.6-2.6,0.2-3.6-0.7c-1.1-1-1.5-2.2-1.6-3.1c-0.1-0.9,0-1.5-0.2-1.6
							c-0.2-0.1-0.8,0.2-1.2,1.4c-0.1,0.3-0.2,0.6-0.2,1l-9.6-0.6c0.1-1.9,0.2-3.9,0.4-5.8c0.6-12.8,1.2-24.9,1.4-36.3
							C90.3,296.9,90.3,294.1,90.3,291.4z"/>
						<path d="M95.5,296.3c0.4,0.4,0.8,0.7,1.3,1.1c0.5,0.4,0.9,0.7,1.5,1.1c0.3,0.2,0.5,0.3,0.8,0.5c0.5,0.3,1.1,0.7,1.7,1
							c0.3,0.2,0.6,0.3,0.9,0.5c0.6,0.3,1.3,0.6,1.9,0.9c1,0.5,2,0.9,3.1,1.3c2.9,1.1,6.2,2,9.8,2.6c7.2,1.4,15.5,2,24.6,1
							c0.4,0,0.8-0.1,1.2-0.1c0.2,1,0.3,2,0.4,3.1v0.1c-0.4,0.1-0.9,0.1-1.3,0.2c-4,0.4-7.9,0.4-11.6,0.2c-5-0.3-9.6-1-13.7-1.9
							c-7.3-1.6-13.5-4.2-17.9-7.4c-4.2-2.9-6.7-6.4-7.8-9.1c0-0.6,0-1.3,0-1.9c0.2,0.3,0.3,0.7,0.6,1.1
							C91.8,292.2,93.2,294.3,95.5,296.3z"/>
						<path d="M89.2,286.6c0.1,0,0.4,1,1.2,2.8c0,0.7,0,1.3,0,1.9c-0.1-0.1-0.1-0.3-0.2-0.5c-0.6-1.4-0.8-2.5-0.9-3.2
							C89.1,287,89.1,286.6,89.2,286.6z"/>
						<path class="st0" d="M88.8,439c-0.2,1.9,0.5,2.8,0.7,2.8c0.3,0,0.2-1.3,1-3c0.4-0.8,1-1.8,2-2.6c0.9-0.8,2.2-1.5,3.6-1.6
							c1.4-0.1,2.8,0.5,3.9,1.8c1.1,1.3,1.8,3.2,1.6,5c-0.1,0.9-0.4,1.6-1.1,2.6c-0.6,1-1.7,2.2-2.2,4.2c-0.4,2.1,0.3,3.9,0.6,5.2
							c0.4,1.3,0.7,2.5,0.9,3.8c0.8,5.3,0.1,10.6-1.4,14.9c-1.5,4.3-3.9,8.1-6.3,10.3c-1.2,1-2.5,1.6-3.5,1.6c-0.3,0-0.6,0-0.9-0.1
							c0,0-0.1,0-0.1,0c0,0,0,0,0,0c-0.1,0-0.1,0-0.2-0.1c0,0,0,0,0,0c-0.3-0.1-0.7-0.2-0.9-0.4c-0.2-0.1-0.4-0.2-0.5-0.4
							c-1.4-1.1-1.2-2.4-1.6-2.4c-0.1,0-0.3,0.2-0.4,0.7l-9.7-1.4c0.9-6,1.7-12.1,2.5-18.2c0.2-1.7,0.5-3.5,0.7-5.2
							c0.5-3.5,0.9-7,1.3-10.5c0.3-2.7,0.7-5.3,1-8L88.8,439z"/>
						<path d="M87.6,483.8C87.6,483.8,87.7,483.8,87.6,483.8C87.7,483.8,87.7,483.8,87.6,483.8z"/>
						<path d="M87.6,483.8C87.6,483.8,87.6,483.8,87.6,483.8C87.6,483.8,87.6,483.8,87.6,483.8z"/>
						<path d="M87.6,483.8c-0.1,0-0.1,0-0.2-0.1C87.4,483.8,87.5,483.8,87.6,483.8z"/>
						<path d="M86.9,218.6c0-0.6,0-1.1-0.1-1.6c0.4,1.8,0.9,2.6,0.8,2.7c-0.1,0-0.3-0.3-0.6-0.8C87,218.7,87,218.7,86.9,218.6z"/>
						<path class="st0" d="M86.9,205.8c-0.1,0-0.2,1.5-0.2,4.4c0,1.7,0,4,0.1,6.7c-0.1-0.3-0.2-0.7-0.3-1c-0.5-2.3-0.8-5.7-0.1-10
							c0,0,0,0,0-0.1c0-0.3,0.1-0.7,0.2-1c1.7-9.6,7.9-22.6,18.2-37c5.2-7.1,11-14.9,18.8-21.8c3.3-3.2,6.8-6.4,10.3-9.9
							c1.5-1.5,3-3,4.5-4.6c3-3.1,6-6.4,8.9-10c7.7-9.3,14.6-21.1,16.8-35c0.6-3.4,0.8-7,0.8-10.5c0-1.8-0.1-3.6-0.2-5.4
							c-0.2-2.4-1-3.8-1.5-5.5c-1.2-3.4-2.5-6.6-3.6-9.9c-0.6-1.6-1.1-3.3-1.5-4.9c-0.2-0.8-0.3-1.6-0.4-2.3v-0.5c0,0,0,0,0,0
							c0.1,0,0.6-0.2,0.8-0.3c0.2-0.1,0.4-0.1,0.6-0.1c0.2,0,0.5,0,0.7,0c1,0,2.1,0.2,3.2,0.4c2.1,0.5,4.2,1.5,6.1,2.7
							c3.9,2.5,7.1,6.2,9.6,10.5c0.9,1.6,1.8,3.2,2.6,5c0.5,1.1,1,2.3,1.4,3.5c0.2,0.6,0.4,1.2,0.6,1.8c0.4,1.2,0.8,2.4,1.1,3.7
							c0.2,0.6,0.3,1.2,0.5,1.8c0.4,1.9,0.8,3.8,1.1,5.8c0.4,2.6,0.6,5.2,0.7,7.8c0.2,8.9-1.2,17.7-4.3,25.7c-0.8,2-1.6,3.9-2.6,5.9
							c-0.9,1.8-2.1,4-2.9,6.1c-0.4,1.1-0.8,2.2-1.1,3.4c-0.3,1.2-0.5,2.4-0.6,3.7c0,0.5,0,1,0,1.5c0,0.1,0,0.3,0,0.4
							c0,0.1,0,0.3,0,0.4c0,0.3,0.1,0.7,0.2,1c0,0.2,0.1,0.5,0.2,0.7c0.5,1.4,1.4,2.7,2.5,3.6c1.4,1.1,3.2,1.6,4.9,1.6l0.3,8.8
							c-1.6,0-3.3,0.2-5.1,0.5c-3.2,0.5-6.8,1.5-10.5,3c-1.9,0.8-3.7,1.7-5.7,2.8c-1.9,1.2-3.9,2.8-5.1,5.2c-2.5,5-0.8,11.3,3,15.6
							c1.2,1.3,2.5,2.4,4,3.3c-0.1,0.3-0.2,0.7-0.4,1.1c-0.2,0.7-0.5,1.6-0.8,2.6c-0.3,1-0.6,2.1-1.1,3.4c-0.8,2.4-2,5.3-3.4,8.3
							c-0.8,1.5-1.5,3.1-2.5,4.6c-0.9,1.6-2,3.1-3.1,4.7c-1.2,1.5-2.3,3-3.5,4.4c-1.1,1.4-2.4,2.6-3.6,3.8c-2.4,2.3-4.7,4.2-6.8,5.7
							c-1,0.8-2,1.4-2.8,2c-0.8,0.6-1.6,1.1-2.2,1.5c-0.8,0.6-1.4,1-1.6,1.4c0,0.1-0.1,0.1-0.1,0.1c0,0.1,0,0.1,0,0.2
							c0,0,0,0,0.1,0.1c0,0,0.1,0,0.1,0.1c0.3,0.1,1.1,0,2.2-0.3c0.2,0,0.4-0.1,0.6-0.1c0.6-0.2,1.3-0.4,2-0.7
							c1-0.4,2.1-0.8,3.3-1.5c2.4-1.2,5.1-3,7.8-5.3c1.3-1.2,2.8-2.4,4-3.9c1.4-1.4,2.6-3,3.9-4.7c1.2-1.7,2.3-3.4,3.3-5.2
							c1-1.7,1.8-3.5,2.5-5.1c1.4-3.4,2.3-6.5,2.8-9.3c0.3-1.3,0.4-2.6,0.5-3.7c0.1-1.1,0.1-2,0.1-2.8c0-0.2,0-0.5,0-0.7
							c3.3,1.6,7.1,2.2,10.8,2.4c4.6,0.1,9.2-0.2,14-0.8l0.2,1.5c-2.9,0.3-6.2,1-9.9,2.2c-2.1,0.8-4.4,1.7-6.6,3.4
							c-0.7,0.5-1.4,1.1-2,1.8c-0.1,0.1-0.3,0.3-0.4,0.4c-0.2,0.3-0.5,0.6-0.7,0.9c-0.4,0.7-0.8,1.3-1.2,2c-0.2,0.8-0.4,1.5-0.7,2.3
							c0,0,0,0.1-0.1,0.1l-0.4,0.3c-0.9,0.6-1.7,1.9-1.7,3.2c0,2.8,1.7,4.1,2.8,5.2c0.3,0.3,0.7,0.5,1,0.7l-1.2,1.6
							c-0.2,0-0.5,0.3-1,0.9c-0.1,0.1-0.2,0.3-0.3,0.4c-0.1,0.1-0.2,0.3-0.3,0.5c-0.1,0.2-0.2,0.3-0.4,0.6v0c-0.3,0.7-0.7,1.5-1,2.5
							l-2.8-0.1c0-0.1,0-0.2,0-0.3c-0.1-0.2-1.2,0-2.8,1.4c-1.5,1.4-3.3,4.1-3.7,8c-0.1,1.4-0.1,3,0.1,4.6c0.1,0.5,0.1,0.9,0.2,1.4
							c0.1,0.5,0.2,0.9,0.4,1.4c0.1,0.5,0.3,0.9,0.5,1.4c0.4,0.9,0.8,1.8,1.4,2.7c0.3,0.5,0.6,0.9,0.9,1.3c2.8,3.7,7.2,6.4,12,7.7
							c-1,0.6-2.8,1.9-5.3,3.3c-3.8,2-9.5,3.7-16.2,4.1c-6.7,0.5-13,0.4-17.6,1.1c-4.6,0.6-7.3,1.8-7.2,2.3c0.1,0.6,2.9,0.6,7.3,0.8
							h0.1l-0.1,2c-0.3,0.1,0.2,3.3,1.5,9.1c0.2,1.1,0.5,2.3,0.8,3.5c0.2,0.8,0.4,1.7,0.6,2.6c0.3,1.4,0.6,2.8,0.9,4.4
							c0.4,2.3,0.9,4.7,1.4,7.3c-0.1,0.1-0.2,0.2-0.2,0.3c0,0.1,0.1,0.2,0.3,0.3c0,0,0,0,0,0c0.4,1.9,0.7,3.9,1.1,5.9
							c0.7,4.3,1.6,8.9,2.2,13.9c-0.4,0.1-0.8,0.1-1.2,0.1c-9.1,1-17.4,0.4-24.6-1c-3.6-0.7-6.9-1.6-9.8-2.6
							c-1.1-0.4-2.1-0.8-3.1-1.3c-0.7-0.3-1.3-0.6-1.9-0.9c-0.3-0.2-0.6-0.3-0.9-0.5c-0.6-0.3-1.1-0.7-1.7-1
							c-0.3-0.2-0.5-0.3-0.8-0.5c-0.5-0.3-1-0.7-1.5-1.1c-0.5-0.4-0.9-0.7-1.3-1.1c-2.2-2-3.7-4.1-4.6-5.7c-0.2-0.4-0.4-0.8-0.6-1.1
							c0.2-7.5,0.2-14.6,0.1-21.2c0-4.8-0.1-9.4-0.1-13.8c-0.2-4.4-0.3-8.5-0.5-12.3c-0.3-7.7-0.6-14.3-1.1-19.7
							c-0.4-5.4-0.8-9.6-1.1-12.4C87.3,207.3,87.1,205.8,86.9,205.8z"/>
						<path d="M86.4,483.3c0.3,0.2,0.6,0.3,0.9,0.4C87,483.6,86.7,483.5,86.4,483.3z"/>
						<path d="M86.5,205.9C86.5,205.8,86.5,205.8,86.5,205.9C86.5,205.8,86.5,205.8,86.5,205.9z"/>
						<path d="M86.5,205.9c-0.7,4.3-0.4,7.7,0.1,10c0.1,0.4,0.1,0.7,0.3,1v0c0,0.5,0,1.1,0.1,1.6c-0.3-0.6-0.7-1.4-1-2.5
							c-0.8-2.5-1.4-6.5-0.6-11.5c1.3-10,7.3-23.6,17.4-38.4c2.5-3.7,5.3-7.5,8.4-11.4c1.5-1.9,3.2-3.8,4.9-5.7
							c1.7-2,3.7-3.7,5.5-5.5c7.5-7.3,15.7-15.1,23-24.3c7.4-9.2,13.8-20.4,15.7-33.3c0.6-3.2,0.7-6.5,0.7-9.8c0-1.7-0.1-3.4-0.2-5
							c-0.1-1.1-0.8-2.9-1.3-4.4c-1.2-3.2-2.5-6.5-3.7-9.9c-0.6-1.7-1.1-3.4-1.6-5.3c-0.2-1-0.4-1.9-0.5-3c-0.2-0.8,0-3.4,1.5-4.3
							c1.1-0.8,1.7-0.9,2.5-1.1c0.8-0.2,1.5-0.3,2.3-0.3c1.5,0,2.8,0.3,4.1,0.5c2.6,0.6,5.2,1.7,7.4,3.2c4.6,2.9,8.2,7.2,10.9,11.8
							c2.8,4.7,4.8,9.8,6.2,15.1c0.7,2.7,1.3,5.4,1.7,8.1c0.4,2.7,0.7,5.5,0.7,8.3c0.3,9.5-1.3,18.9-4.6,27.4c-1.5,4.3-4,8.3-5.5,12
							c-1.5,3.7-2.2,8.2-0.1,9.6c2.1,1.8,5.7,0,9.1-2.1c3.7-2.2,7.6-3.9,11.7-4.9c4.1-1,8.4-1.1,12.6-0.3c4.2,0.9,8.2,3.1,11,6.5
							c2.9,3.3,4.4,7.7,4.7,11.9c0.4,4.2-0.3,8.3-1.7,12.1c-1.4,3.7-3.3,7.2-5.9,10c-0.4,0.4-0.8,0.8-1.2,1.2h0
							c-0.2-0.1-0.3-0.2-0.5-0.2c-0.1,0-0.1-0.1-0.2-0.1c-0.4-0.2-0.8-0.4-1.1-0.5c-1.3-0.5-2.1-0.5-2.1-0.4l-0.1-0.1
							c0.9-0.7,1.7-1.6,2.5-2.5c2.2-2.5,3.9-5.5,5.1-8.8c2.3-6.5,2.2-14.6-2.5-19.8c-4.5-5.4-12.5-6.6-19.7-4.8
							c-3.7,0.8-7.2,2.4-10.6,4.4c-1.8,1.1-3.6,2.3-5.9,3c-0.8,0.3-1.9,0.5-2.9,0.5c-1.7,0-3.5-0.5-4.9-1.6
							c-1.1-0.9-2.1-2.2-2.5-3.6c-0.1-0.2-0.1-0.5-0.2-0.7c-0.1-0.3-0.1-0.7-0.2-1c0-0.1,0-0.3,0-0.4c0-0.1,0-0.3,0-0.4
							c0-0.5,0-1,0-1.5c0.1-1.3,0.3-2.5,0.6-3.7c0.3-1.2,0.7-2.3,1.1-3.4c0.8-2.1,2-4.3,2.9-6.1c1-1.9,1.8-3.9,2.6-5.9
							c3.1-8,4.5-16.8,4.3-25.7c-0.1-2.6-0.3-5.2-0.7-7.8c-0.3-2-0.6-3.9-1.1-5.8c-0.1-0.6-0.3-1.2-0.5-1.8
							c-0.3-1.2-0.7-2.5-1.1-3.7c-0.2-0.6-0.4-1.2-0.6-1.8c-0.4-1.2-0.9-2.4-1.4-3.5c-0.8-1.7-1.6-3.4-2.6-5
							c-2.5-4.2-5.7-8-9.6-10.5c-1.9-1.2-4-2.1-6.1-2.7c-1.1-0.2-2.2-0.4-3.2-0.4c-0.2,0-0.5,0-0.7,0c-0.2,0-0.4,0.1-0.6,0.1
							c-0.3,0.1-0.7,0.3-0.8,0.3h0v0V48c0.1,0.7,0.2,1.5,0.4,2.3c0.4,1.6,0.9,3.3,1.5,4.9c1.1,3.3,2.4,6.5,3.6,9.9
							c0.6,1.7,1.3,3.2,1.5,5.5c0.1,1.8,0.1,3.6,0.2,5.4c-0.1,3.6-0.2,7.1-0.8,10.5c-2.2,13.9-9.1,25.7-16.8,35
							c-2.9,3.6-5.9,6.9-8.9,10c-1.5,1.6-3,3.1-4.5,4.6c-3.5,3.5-7,6.7-10.3,9.9c-7.7,6.8-13.6,14.7-18.8,21.8
							c-10.2,14.4-16.5,27.5-18.2,37C86.6,205.1,86.6,205.5,86.5,205.9C86.5,205.8,86.5,205.8,86.5,205.9z"/>
						<path d="M88.9,438.2c0.3-1.1,0.8-2.6,1.9-3.8c1.1-1.3,2.7-2.6,4.9-3c2.2-0.4,5,0.4,6.9,2.3c0.2,0.2,0.4,0.5,0.6,0.7
							c0.1,0.1,0.2,0.2,0.3,0.4c1.4,1.8,2.2,4.2,2,6.9c-0.1,1.6-0.8,3.4-1.6,4.6c-0.8,1.1-1.4,2.1-1.5,2.7c-0.3,1,1.3,4.4,1.6,7.4
							c0.9,6.2,0,12.2-2,17.1c-1,2.5-2.2,4.7-3.6,6.6c-0.8,1.1-1.7,2.2-2.7,3.2c-0.2,0.2-0.4,0.4-0.6,0.6s-0.4,0.3-0.6,0.5
							c-0.2,0.2-0.4,0.3-0.6,0.5c-1.7,1.2-3.7,1.9-5.5,1.6c-1.8-0.3-3-1.3-3.8-2.3c-0.7-1-0.9-2.1-0.8-2.7c0-0.1,0-0.1,0-0.2
							c0.1-0.5,0.3-0.7,0.4-0.7c0.4,0,0.3,1.3,1.6,2.4c0.2,0.1,0.3,0.3,0.5,0.4c0.3,0.2,0.6,0.3,0.9,0.4c0,0,0,0,0,0
							c0.1,0,0.2,0.1,0.2,0.1c0,0,0,0,0,0c0,0,0.1,0,0.1,0c0.3,0.1,0.6,0.1,0.9,0.1c1.1,0,2.4-0.6,3.5-1.6c2.4-2.2,4.8-6,6.3-10.3
							c1.5-4.4,2.2-9.6,1.4-14.9c-0.2-1.3-0.5-2.6-0.9-3.8c-0.3-1.3-1-3-0.6-5.2c0.5-2.1,1.5-3.3,2.2-4.2c0.7-1,0.9-1.6,1.1-2.6
							c0.2-1.8-0.5-3.7-1.6-5c-1.1-1.3-2.6-1.8-3.9-1.8c-1.4,0.1-2.7,0.8-3.6,1.6c-1,0.8-1.6,1.8-2,2.6c-0.8,1.7-0.7,2.9-1,3
							c-0.2,0.1-0.8-0.9-0.7-2.8C88.8,438.7,88.8,438.5,88.9,438.2z"/>
						<path d="M69.3,593c0.5,1.3,1,2.7,1.3,4.1c0.4,1.5,0.4,3,0.3,4.2c-0.3,2.6-1.6,4.6-3,5.3c-1.4,0.7-2.2,0.3-2.2,0.1
							c-0.1-0.3,0.6-0.7,1.2-1.5c0.6-0.8,1.1-2.2,1-4.1c0-0.9-0.2-1.9-0.6-2.9c-0.4-1.1-1-2.3-1.6-3.7c-0.6-1.4-1.2-3-1.4-5
							c-0.2-2,0.3-4.2,1-5.8c0.7-1.7,1.2-3,1.5-4.4c0.4-1.4,0.7-2.8,0.8-4.2c0.3-2.7,0.3-5.2,0-7.3c-0.4-4.2-1.4-6.8-0.8-7.1
							c0.4-0.3,2.5,1.9,3.8,6.5c0.6,2.3,1.1,5.1,0.9,8.3c-0.1,1.6-0.3,3.2-0.7,4.9c-0.4,1.7-1.1,3.5-1.7,4.9
							c-0.6,1.5-0.8,2.6-0.8,3.8C68.5,590.4,68.9,591.6,69.3,593z"/>
						<path class="st0" d="M95.3,580.8c0.3,1.1,0.7,2.2,1.3,3.1c0.1,0.2,0.3,0.4,0.5,0.6c0.1,0.1,0.2,0.2,0.3,0.3
							c0.5,0.5,1,0.8,1.6,1.1c0.9,0.3,1.7,0.4,2.5,0.3c1.5-0.2,2.5-1,2.8-1.8c0.4-0.7,0.2-1.1,0.1-1.2c-0.2,0-0.4,0.3-0.8,0.7
							c-0.4,0.3-1.2,0.7-2.2,0.5c-1.1-0.1-2.2-0.6-2.7-1.9c-0.7-1.3-0.8-3.1-0.8-5.4c0.3-6.8,1.1-15.5,3.3-25
							c0.4-1.6,0.8-3.2,1.2-4.8c0.4-1.6,0.9-3.3,1.4-4.9c0.5-1.7,1-3.4,1.2-5.2c0.1-0.7,0.2-1.5,0.2-2.2c0-0.4,0-0.8,0-1.1
							c0-0.2,0-0.4,0-0.6c0-0.4,0-0.8-0.1-1.2c0-0.4-0.1-0.8-0.2-1.2c-0.1-0.4-0.2-0.8-0.3-1.2c-0.1-0.2-0.1-0.4-0.2-0.6
							c-0.3-0.8-0.7-1.5-1.2-2.2c-0.1-0.2-0.2-0.2-0.2-0.2c0,0,0,0,0-0.1l0,0l0.3-0.3l0.6-0.6c0.7-0.8,1.5-1.6,2.4-2.2
							c1.6-1.3,3.4-2.4,5.1-3.2c1.7-0.8,3.6-1.5,4.5-1.2c1,0.2,1.7,1.3,2.1,2.6c0.6,2.5,0,5.2,0.3,7c0.2,1.8,0.8,2.7,1,2.6
							c0.3-0.1,0.1-1,0.4-2.6c0.1-0.8,0.3-1.8,0.6-3c0.2-1.1,0.5-2.8,0.2-4.5c-0.3-1.7-1.1-4.1-3.7-5.1c-1.2-0.5-2.5-0.3-3.6-0.1
							c-1,0.2-2.1,0.5-3.1,0.9c-2.1,0.8-4.1,1.9-6.1,3.4c-1,0.7-2,1.6-2.9,2.5l-0.7,0.7l-0.3,0.4c-0.2,0.2-0.4,0.5-0.6,0.7
							c-0.7,0.9-1.5,1.9-2.2,2.9c1,0.7,1.9,1.5,2.7,2.3c0.1,0.2,0.2,0.3,0.3,0.5c0.1,0.2,0.2,0.4,0.3,0.6c0.1,0.2,0.2,0.4,0.2,0.7
							c0.2,0.7,0.2,1.5,0.2,2.3c0,2.3-0.6,4.7-1.4,7.3c-2.1,6.8-3.5,13.5-4.2,19.7c-0.7,6.2-0.8,11.7-0.6,16.4c0,0.3,0,0.6,0.1,0.9
							C95,579,95.1,579.9,95.3,580.8z M94.6,484.3c0.2-0.2,0.4-0.3,0.6-0.5s0.4-0.4,0.6-0.6c1-1,1.8-2,2.7-3.2
							c1.4-1.9,2.6-4.1,3.6-6.6c2-4.9,2.9-10.9,2-17.1c-0.3-3-1.9-6.4-1.6-7.4c0.1-0.6,0.7-1.6,1.5-2.7c0.8-1.1,1.5-2.9,1.6-4.6
							c0.2-2.7-0.7-5.1-2-6.9c-0.1-0.1-0.2-0.2-0.3-0.4c-0.2-0.2-0.4-0.5-0.6-0.7c-1.9-1.9-4.6-2.7-6.9-2.3c-2.2,0.4-3.9,1.7-4.9,3
							c-1.1,1.3-1.7,2.7-1.9,3.8c0,0.3-0.1,0.5-0.1,0.7l-9.1-1.1c0.7-6.2,1.5-12.6,2.2-18.9c0.4-3.7,0.7-7.3,1.1-10.9
							c0.4-3.6,0.7-7.2,1.1-10.8c0.7-7.2,1.3-14.2,1.9-21.1c1.1-11.8,1.8-23.2,2.5-34.2l9.6,0.6c-0.1,1.2,0.2,2.7,1.2,4.1
							c0.7,0.9,1.7,1.8,3.1,2.3c1.4,0.5,3.2,0.3,4.7-0.4c1.5-0.8,2.7-2.1,3.5-3.8c0.2-0.4,0.4-0.8,0.5-1.3c0,0,0,0,0-0.1
							c0,0,0,0,0,0c0,0.1,0.1,0.1,0.1,0.1h0c0,0,0.1,0,0.1,0.1c0.1,0,0.2,0.1,0.3,0.1c0.1,0,0.1,0,0.2,0.1l1.1,0.3
							c0.7,0.1,1.4,0.2,2.2,0.2c2.3-0.1,4.4-0.8,6.2-1.9c1.8-1.1,3.3-2.6,4.4-4.3c2-3.2,2.8-6.5,3.2-9.1c0.2-1.6,0.4-2.9,0.5-4.1
							c0.2-2.3,0.2-3.8,0-4.3c0-0.1-0.1-0.1-0.1-0.1l0.5-10.7c3.7,0.2,7.6,0.1,11.6-0.2c0.4,0,0.9-0.1,1.3-0.2
							c0.4,3.1,0.8,6.2,1.3,9.5c0.2,1.6,0.3,3.3,0.5,5c0.2,1.7,0.3,3.4,0.5,5.1c0.1,0.9,0.2,1.7,0.3,2.6c0.2,1.7,0.3,3.5,0.4,5.3
							c0.1,0.9,0.1,1.8,0.2,2.7c0,0.3,0.1,0.7,0.1,1c0,0.7,0.1,1.4,0.1,2.1c0.1,1.1,0.2,2.1,0.2,3.2c-0.5,0.5-0.9,1.1-1.4,1.6
							c-6.8,7.8-13.4,14.5-18.2,19.3c-4.8,4.8-7.9,7.8-7.5,8.3c0.4,0.5,4-1.6,9.5-5.9c5-3.9,11.5-9.8,17.9-17c0,0.8,0.1,1.7,0.1,2.5
							c0,0.9,0,1.8,0.1,2.7c0,0.6,0,1.2,0,1.8c-0.4,0.4-0.7,0.7-1.1,1.1c-5.7,5.7-11.3,10.3-15.4,13.6c-4.1,3.3-6.7,5.4-6.4,5.9
							c0.3,0.5,3.5-0.6,8.1-3.3c4.2-2.5,9.6-6.3,14.9-11.3c0,2.6,0,5.1,0,7.7c-0.4,0.4-0.9,0.8-1.4,1.1
							c-9.8,8.1-18.3,14.1-17.7,15.2c0.5,1,9.4-3,19-10.6c0,2-0.1,4-0.2,6c-2,1.3-4.2,2.7-6.4,4.3c-1.2,0.8-2.4,1.6-3.5,2.4
							c-0.6,0.4-1.1,0.8-1.7,1.2c-1.1,0.8-2.1,1.5-3.1,2.2c-0.7,0.5-1.5,1.1-2.1,1.6c-1.4,1-2.5,1.9-3.5,2.7
							c-0.3,0.3-0.7,0.5-0.9,0.8c-0.1,0.1-0.3,0.2-0.4,0.4c-0.3,0.2-0.5,0.5-0.7,0.7c-1,0.9-1.5,1.6-1.3,1.9
							c0.6,1.1,9.6-3.1,19.8-10.1c1.4-0.9,2.6-1.8,3.9-2.8c-0.1,2.6-0.3,5.1-0.4,7.5c-0.2,2.8-0.3,5.6-0.6,8.4
							c-0.1,1.8-0.3,3.6-0.4,5.4c-0.2,2.7-0.5,5.3-0.7,8c-0.7,6.9-1.4,13.5-2.2,19.6c-0.7,6.2-1.5,11.9-2.2,17.1
							c-0.6,4.5-1.2,8.6-1.7,12.2c-0.6-1-1.4-2.1-2.6-2.9c-0.1-0.1-0.3-0.2-0.5-0.3c-0.3-0.2-0.7-0.3-1-0.4c-0.1,0-0.3-0.1-0.4-0.1
							c-0.2-0.1-0.5-0.1-0.7-0.2c-0.2,0-0.4-0.1-0.6-0.1c-0.7-0.1-1.5-0.1-2.3,0c-0.2,0-0.5,0.1-0.7,0.1c-0.5,0.1-1,0.2-1.4,0.4
							c-1.2,0.4-2.3,1.1-3.4,1.9c-1.7,1.3-3.2,3.1-4.2,5.1c-1.1,2-1.8,4.1-2.5,6.2c-0.6,2.1-1.2,4.2-1.5,6.5
							c-0.3,2.2-0.4,4.6,0.5,6.9c0.8,2.3,2.8,4,4.3,4.7c1.5,0.8,2.6,1.4,3.6,2.2c4,3.2,5.3,6.6,6,6.3c0.3-0.1,0.3-1.1-0.2-2.7
							c-0.5-1.6-1.7-3.8-3.7-6c-1-1.1-2.5-2.2-3.8-3c-1.3-0.8-2-1.7-2.4-3c-0.8-2.6,0.2-6.5,1.5-10.6c1.2-4,2.7-7.5,5-9.5
							c2.3-2.1,5.2-2.6,7-1.8c2,0.9,3,2.8,3.3,4.1c0.1,0.3,0.1,0.6,0.1,0.8c-0.4,2.9-0.8,5.6-1.1,7.8c-0.8,5.9-1.1,9.1-0.8,9.2
							c0.3,0,1.1-3.1,2.4-8.9c1.3-5.8,3-14.1,4.8-24.5c0.8-5.2,1.9-10.9,2.7-17.1c0.7-4.8,1.4-9.8,2-15c0.1-1,0.2-2,0.3-3
							c0.1-0.6,0.1-1.1,0.2-1.7c0.2-1.4,0.3-2.7,0.5-4.1c0.2-1.7,0.3-3.3,0.5-5.1l1,0.1c-0.1,1.1-0.2,2.2-0.2,3.3
							c0,3.5,0.2,6.6,0.3,9.5c0.1,1.5,0.1,2.7,0.3,4.2c0.2,1.4,0.5,2.8,1.2,4.1c0.7,1.2,1.9,2.2,2.9,2.5c1.1,0.3,2,0.2,2.8-0.2
							c0.7-0.3,1.1-0.8,1.2-1.2c0-0.1,0-0.1,0.1-0.2l4.6,0.8c-1.4,7.4-2.8,14.7-4.3,21.8c-2.9,13.6-5.9,26.7-8.9,39
							c-0.7,3.1-1.5,6.2-2.3,9.2c-0.8,3-1.5,6-2.3,8.9c-1.1,4.4-2.3,8.7-3.4,12.9c-0.4,1.4-0.7,2.8-1.1,4.2
							c-0.7,2.7-1.4,5.4-2.1,8.1c-2.1,7.9-4.2,15.4-6.1,22.4c-5.1,18.6-9.3,33.6-12.2,44c-1.4,5.2-2.5,9.3-3.2,12.1
							c-0.1,0.5-0.2,0.9-0.3,1.3c-2.9,0.9-6,1.8-9.2,2.6c-4.1,1.1-8.4,2.1-12.7,3.2c-4.4,0.9-8.7,1.9-12.9,2.6
							c-4.2,0.8-8.2,1.4-12.1,2c-7.7,1.1-14.7,1.9-20.6,2.4c-1.6,0.1-3,0.3-4.5,0.4l-0.1-1.3c0.1,0,0.3-0.6,0.6-1.6
							c0.2-0.5,0.4-1.2,0.6-2c0-0.2,0.1-0.3,0.1-0.5c0.7-2.8,1.8-6.8,3-12.1c1.3-5.2,2.8-11.7,4.4-19.2c1.7-7.5,3.4-16,5.3-25.5
							c1.9-9.5,3.8-19.8,5.8-31c2.1-11.2,3.9-23.1,6-35.7c1-6.9,2.1-14.1,3.2-21.4l9.7,1.4c0,0.1,0,0.1,0,0.2
							c-0.1,0.6,0.1,1.7,0.8,2.7c0.7,1,2,2,3.8,2.3c1.8,0.3,3.8-0.4,5.5-1.6C94.2,484.6,94.4,484.5,94.6,484.3z M67.6,567.8
							c0.2,2.1,0.3,4.6,0,7.3c-0.1,1.3-0.4,2.8-0.8,4.2c-0.4,1.5-0.9,2.7-1.5,4.4c-0.7,1.6-1.2,3.8-1,5.8c0.2,2,0.8,3.6,1.4,5
							c0.6,1.4,1.2,2.6,1.6,3.7c0.4,1,0.6,2,0.6,2.9c0.1,1.9-0.4,3.3-1,4.1c-0.6,0.8-1.2,1.1-1.2,1.5c0,0.3,0.8,0.6,2.2-0.1
							c1.4-0.7,2.7-2.7,3-5.3c0.2-1.3,0.1-2.8-0.3-4.2c-0.4-1.4-0.9-2.8-1.3-4.1c-0.4-1.3-0.8-2.6-0.9-3.9c-0.1-1.2,0.2-2.3,0.8-3.8
							c0.6-1.5,1.3-3.3,1.7-4.9c0.4-1.7,0.6-3.4,0.7-4.9c0.1-3.2-0.3-6-0.9-8.3c-1.3-4.6-3.3-6.7-3.8-6.5
							C66.2,561,67.2,563.6,67.6,567.8z"/>
						<path d="M86.8,210.2c0-2.9,0-4.4,0.2-4.4c0.1,0,0.4,1.5,0.7,4.3c0.3,2.8,0.7,7,1.1,12.4c0.5,5.4,0.8,12,1.1,19.7
							c0.1,3.9,0.3,8,0.5,12.3c0,4.4,0.1,8.9,0.1,13.8c0.1,6.6,0.1,13.7-0.1,21.2c-0.8-1.8-1-2.9-1.2-2.8c-0.1,0-0.1,0.4,0,1.1
							c0.1,0.7,0.4,1.8,0.9,3.2c0.1,0.1,0.1,0.3,0.2,0.5c0,2.8-0.1,5.6-0.1,8.5c-0.2,11.4-0.9,23.5-1.4,36.3
							c-0.1,1.9-0.2,3.8-0.4,5.8c-0.7,11-1.4,22.4-2.5,34.2c-0.5,6.9-1.2,14-1.9,21.1c-0.3,3.6-0.7,7.2-1.1,10.8
							c-0.4,3.6-0.7,7.3-1.1,10.9c-0.8,6.4-1.5,12.7-2.2,18.9c-0.3,2.7-0.7,5.4-1,8c-0.4,3.5-0.9,7-1.3,10.5
							c-0.2,1.7-0.5,3.5-0.7,5.2c-0.8,6.2-1.6,12.3-2.5,18.2c-1.1,7.3-2.2,14.5-3.2,21.4c-2.1,12.6-3.9,24.6-6,35.7
							c-2,11.2-3.9,21.6-5.8,31c-1.8,9.5-3.6,18-5.3,25.5c-1.6,7.5-3,13.9-4.4,19.2c-1.2,5.2-2.3,9.3-3,12.1c0,0.2-0.1,0.3-0.1,0.5
							c-0.2,0.8-0.4,1.5-0.6,2c-0.3,1.1-0.5,1.6-0.6,1.6c-0.1,0,0-1.5,0.5-4.4c0.5-2.8,1.2-6.9,2.2-12.2c1-5.3,2.2-11.8,3.6-19.3
							c1.4-7.5,3-16.1,4.6-25.5c1.7-9.5,3.4-19.9,5.3-31.1c1.9-11.2,3.6-23.1,5.5-35.7c1.8-12.6,3.8-25.8,5.5-39.6
							c1.8-13.8,3.4-28,5.1-42.6c1.5-14.6,3-28.9,4.1-42.7c1.3-13.8,2.1-27.2,3-39.8c0.7-12.7,1.5-24.8,1.8-36.1
							c0.4-11.3,0.8-21.9,0.8-31.5c0.1-4.8,0.1-9.4,0.2-13.7c-0.1-4.4-0.1-8.5-0.1-12.3c-0.1-7.7-0.1-14.3-0.4-19.6
							c0-1.4-0.1-2.7-0.1-4c0,0.1,0.1,0.1,0.1,0.2c0.3,0.6,0.5,0.8,0.6,0.8c0.1-0.1-0.3-1-0.8-2.7v0
							C86.8,214.1,86.8,211.9,86.8,210.2z"/>
						<path d="M83.1,629.6c-4.3,0.8-8.4,1.3-12.3,1.8c-7.9,0.9-14.9,1.4-20.9,1.5c-3,0.1-5.6,0-8,0c-2.4,0-4.4-0.2-6.1-0.3
							c-3.3-0.3-5.2-0.5-5.2-0.8c0-0.3,1.8-0.6,5.1-0.9c1.7-0.2,3.7-0.3,6-0.5c1.1-0.1,2.3-0.1,3.5-0.3c1.4-0.1,2.9-0.2,4.5-0.4
							c5.9-0.5,12.9-1.3,20.6-2.4c3.8-0.6,7.9-1.2,12.1-2c4.2-0.7,8.5-1.7,12.9-2.6c4.4-1.1,8.7-2.1,12.7-3.2
							c3.2-0.8,6.2-1.8,9.2-2.6c-0.4,2-0.6,2.9-0.5,3c0.1,0,0.6-1.1,1.4-3.2c0.6-0.2,1.2-0.3,1.8-0.5c7.5-2.3,14.2-4.6,19.7-6.7
							c2.8-1,5.3-2,7.5-2.8c2.2-0.8,4.1-1.6,5.7-2.2c3.1-1.2,4.9-1.7,5-1.4c0.1,0.3-1.4,1.3-4.4,3c-1.4,0.9-3.3,1.8-5.4,2.9
							c-2.2,1-4.6,2.3-7.3,3.4c-5.5,2.5-12.1,5.1-19.6,7.7c-3.8,1.2-7.7,2.6-11.9,3.7c-4.1,1.2-8.5,2.3-12.9,3.3
							C91.7,628,87.4,629,83.1,629.6z"/>
					</g>
				</g>
			</g>
		</g>
	</g>
</g>
</svg>
