<?xml version="1.0" encoding="utf-8"?>
<!-- Generator: Adobe Illustrator 23.0.4, SVG Export Plug-In . SVG Version: 6.00 Build 0)  -->
<svg version="1.1" xmlns="http://www.w3.org/2000/svg" xmlns:xlink="http://www.w3.org/1999/xlink" x="0px" y="0px"
	 viewBox="0 0 800 619.5" style="enable-background:new 0 0 800 619.5;" xml:space="preserve">
<style type="text/css">
	.st0{fill:#FFFFFF;}
</style>
<g id="Layer_1">
	<g>
		
			<!-- <image style="overflow:visible;opacity:0.35;" width="1071" height="2330" xlink:href="19F558EDE680291C.png"  transform="matrix(0.24 0 0 0.24 519.9569 73.9764)">
		</image> -->
		<g>
			<g>
				<path class="st0" d="M642.9,328.2c6.1,0,11.3-1.4,14.8-2.6c3.3-1.2,5.2-2.2,5.3-2.7l1.6,0c0,5.4,0.2,10.4,0.3,14.9
					c0.5,10.3,1.2,18.2,1.6,23.6c0.3,2.7,0.5,4.7,0.6,6.1c0.1,0.3,0.1,0.6,0.1,0.9l-0.5,0c-0.1-0.6-0.1-0.9-0.2-0.9
					c-0.3,0-0.7,3.4-1.3,9.6c-0.5,6.2-1.2,15.2-2.1,26.3c-0.8,11.1-1.9,24.4-3,39.1c-0.6,7.3-1.3,15-2,23c-0.8,8-1.6,16.2-2.7,24.7
					c-1,8.5-2.2,16.7-3.4,24.6c-0.6,4-1.3,7.9-1.8,11.7c-0.7,3.8-1.4,7.5-2,11.2c-1.4,7.2-2.7,14.1-4.2,20.6
					c-1.4,6.4-2.8,12.4-4.2,17.9c-1.3,5.5-2.6,10.4-3.8,14.7c-1.1,4.3-2.1,8.1-3,11.1c-1.3,4.9-2.1,8.1-2.2,9.2
					c-6.9-1.3-15.3-3-24.3-4.9c-13.6-3-25.6-6-33-7.8c0.1-0.8,0.1-2.3,0.1-4.4c0-3.4-0.2-8.3,0.1-14.7c0-6.4,0.6-14.2,1.4-23.3
					c0.5-4.5,1-9.4,1.6-14.5c0.7-5.1,1.4-10.6,2.3-16.2c1.9-11.3,4.1-23.7,7.1-37c2.9-13.3,6.3-27.4,10.1-42.2
					c3.8-14.8,8-30.3,12.5-46.4c4.4-16.1,9.1-32.7,13.4-49.9c2-8.6,3.8-17.2,4.4-25.9c0-0.4,0-0.7,0.1-1.1c0.5,0.5,1.1,0.9,1.8,1.4
					C631.3,326.4,636.7,328.2,642.9,328.2 M627.4,502.5c-1.2-0.1-2.5,6.4-3.9,14.3c-1.4,7.9-2.1,14.4-1,14.6
					c1.1,0.2,3.7-6.1,5.1-14.1C628.9,509.2,628.5,502.6,627.4,502.5 M655.7,331.8c-3.1,0.9-7.5,1.8-12.5,2c-5,0.2-9.4-0.4-12.6-1
					c-0.8-0.1-1.5-0.3-2.1-0.5c-0.6-0.1-1.7-0.4-2.2-0.1c-0.8,0.4-0.1,0.7,0.3,0.8c0.2,0.2,0.2,0.2,0.3,0.2c0,0,0,0,0,0.1
					c0,0,0,0.1,0,0.2c-0.1,0-0.2-0.1-0.3-0.1c-0.4,0.1,0,0.3,0.1,0.2c0.1,0,0.1,0,0.2-0.1c0.2,0.1,0.4,0.2,0.8,0.4
					c0.6,0.3,1.3,0.6,2.1,1c3.2,1.3,8.2,2.4,13.8,2.1c5.6-0.2,10.4-1.7,13.5-3.1c1.6-0.7,2.7-1.5,3.4-2.1c0.7-0.6,1-1,0.9-1.2
					c-0.1-0.2-0.8-0.1-1.7,0.1C658.5,330.9,657.2,331.4,655.7,331.8 M642,417.1c-1.1-0.1-2.9,6.5-4.1,14.7c-1.1,8.2-1.1,15,0,15.1
					c1.1,0.1,2.9-6.5,4.1-14.7C643.1,423.9,643.1,417.1,642,417.1 M634.7,461.7c-1.2,0.1-0.8,6.4-1.6,14c-0.8,7.6-2.4,13.7-1.2,14
					c1,0.3,4.5-5.7,5.3-13.8C638,467.9,635.7,461.5,634.7,461.7 M647.2,381.1c-1.5,6.2-3,11.3-2,11.7c1,0.3,4.3-4.5,6-11
					c1.7-6.6,0.9-12-0.2-12C649.9,369.7,648.8,374.9,647.2,381.1 M600.3,497c-0.9,7.7-0.7,14.1,0.4,14.1c1.1,0.1,2.8-6.1,3.7-13.9
					c0.9-7.7,0.7-14.1-0.4-14.1C602.8,483.1,601.2,489.3,600.3,497 M597.8,534.9c0.1,2.6,0.8,4.8,1.7,6.3c0.9,1.5,1.8,2.3,2.3,2.1
					c1.1-0.3,0.2-4,0.1-8.5c-0.2-4.5,0.5-8.2-0.5-8.5c-0.5-0.1-1.4,0.7-2.2,2.2C598.3,530.1,597.7,532.3,597.8,534.9 M618.9,406.2
					c-3.4,5.7-3.6,11-2.5,11.1c1.1,0.2,3-4.4,6.2-9.7c3.1-5.3,6.4-9.4,5.5-10C627.3,397,622.3,400.4,618.9,406.2 M623.2,375.5
					c-0.1,2.3,0.3,3.8,0.8,3.8c1.2,0.1,2.4-5.3,5.4-11.4c3-6.1,6.6-10.7,5.7-11.3c-0.4-0.3-1.9,0.5-3.8,2.3
					c-1.9,1.8-4.1,4.5-5.7,7.8C624,370,623.3,373.2,623.2,375.5 M617.2,437.2c-1.1-0.2-3.5,4.8-4.7,11.3c-1.2,6.5-0.6,11.9,0.5,11.9
					c1.2,0.1,2.4-5.1,3.5-11.4C617.6,442.7,618.3,437.4,617.2,437.2"/>
				<path class="st0" d="M715.5,108.2c-16.7,18.4-32.1,38.7-45.3,60.8c-1.5,2.9-3.1,6.1-2.4,9.9c0.1,0.5,0.3,0.9,0.5,1.4
					c0.4,0.6,0.8,1.4,1.3,1.9c0.5,0.5,1.1,1.1,1.7,1.6l0.4,0.4c0.2-0.1,0.3-0.2,0.4-0.3l0.9-0.7c0.6-0.4,1.2-1.1,1.8-1.7l1.1-1.1
					l1.8-1.8c4.9-4.7,10-9.4,15.2-14c10.6-9.1,21.9-17.9,34-26.1c6.6-4.5,13.3-8.7,20.1-12.8c3.4-2,6.8-4,10.3-5.9l0.4-0.2l0,0
					l0,0.5c0,0.4,0,0.7-0.1,1.1c-0.1,0.7-0.3,1.5-0.6,2.2c-1.1,2.9-3.4,5.6-6,8.1c-2.6,2.5-5.6,4.8-8.5,7.2
					c-5.9,4.7-11.7,9.4-17.3,14.2c-11.2,9.6-21.7,19.8-28.6,31.5c-0.8,1.5-1.7,2.9-2.4,4.4l-1,2.3l-0.3,0.5
					c-0.1,0.2-0.2,0.3-0.3,0.8l-0.8,2.2l-1.6,4.4l-0.4,1.1l-0.2,0.6l-0.1,0.3c0.1,0,0.2-0.1,0.3-0.1l2.3-1.3l4.6-2.5
					c0.7-0.4,1.7-0.9,2.2-1.2l1.2-0.6c6.3-3.3,13-6.1,19.8-8.4c6.8-2.3,13.7-4.1,20.7-5.4c1.7-0.3,3.5-0.7,5.2-0.9
					c0.9-0.1,1.8-0.3,2.6-0.4l1.5-0.2c0.1,0,0.5-0.1,0.5,0l-0.5,0.4c-10,7.9-21.2,14.4-31.2,21.6c-20.4,14.3-33.3,32.6-41,49.9
					c-7.8,17.4-10.9,34-12.3,48.6c-0.8,8.2-1,15.7-1,22.5l-1.6,0c0,0,0-0.1,0-0.1c-0.2-0.4-2.5-0.1-6.1,0.5
					c-3.6,0.6-8.5,1.6-13.9,1.5c-5.3,0-10-1.2-13.1-2.6c-1.4-0.6-2.5-1.2-3.3-1.6c0.1-3.2,0.3-6.4,0-9.6c-0.1-2.1-0.1-4.2-0.3-6.3
					c-0.3-2.1-0.6-4.2-0.8-6.2c-2.4-16.6-8.6-32.1-16.6-45.9c-8.1-13.8-18.4-25.9-29.7-35.9c-11.3-10.1-23.5-18.1-35.6-24.3
					c-2.8-1.4-5.7-3.3-5.7-5.2c-0.1-2,3.1-3.1,6-3.3c6.1-0.5,12,0.1,17.3,1.3s9.9,3.1,13.7,5.3c3.9,2.2,7.1,4.7,10.5,6.5
					c3.3,1.8,6.8,3,9.9,3.2c3.1,0.2,5.8-0.3,7.7-1.1c1.9-0.8,3.1-1.8,3.6-2.6c0.6-0.7,0.7-1.2,0.6-1.2c-0.2-0.2-0.9,1.8-4.6,3.2
					c-1.3,0.4-2.9,0.8-4.8,0.8c0.8-1.1,2.3-4.9,6.8-13.8c5.6-11.3,14.1-26.6,25.2-42.7c5.6-8.1,11.2-15.6,16.6-22.3
					c5.4-6.7,10.6-12.5,15.8-16.7c5.2-4.3,10.3-6.8,14-8.3c2.2-0.8,3.9-1.4,4.9-1.7c-1.2,0.7,0.1,0.8-2.3,4
					c-1.9,2.2-4.2,4.8-6.9,7.8c-5.4,6-12.6,13.6-20.3,23.1c-7.6,9.5-16.1,21.2-20.2,35.9c-1,3.7-1.7,7.5-1.9,11.5l-0.1,1.6l0.1,2.4
					l0,1.2l0,0.6l0,0.3l0,0.1c0,0,0.1,0,0.2-0.1l2.6-1.2l2.4-1.2c0.7-0.4,1.1-0.6,1.7-1c1-0.6,2-1.3,3-2
					c7.7-5.7,13.1-13.4,19.5-20.6c12.6-14.6,27.2-29.8,43.9-45.1c4.2-3.8,8.5-7.7,13-11.4c4.5-3.6,9.4-7.1,15.2-9
					c2-0.6,1.5-0.4,1.8-0.5c0.1,0,0.2,0,0.3,0l-0.5,0.5l-1,1l-3.2,3.2C724,99.1,719.7,103.6,715.5,108.2"/>
				<path d="M631,611.2c-0.1,0.2-0.2,0.3-0.3,0.3c-0.1,0,0-0.1,0-0.4C630.9,611.1,630.9,611.1,631,611.2"/>
				<path d="M666.5,367.5c0.1,0,0.2,0.3,0.2,0.9c0.1,1.4,0.1,4.4,0.1,8.8c-0.1,6.2-0.3,15.2-0.8,26.4c-0.5,11.1-1.1,24.4-2.1,39.1
					c-0.5,7.4-1.1,15.1-1.8,23.1c-0.8,8-1.5,16.3-2.6,24.7c-1,8.5-2.2,16.7-3.4,24.7c-0.7,4-1.3,7.9-2,11.7
					c-0.8,3.8-1.5,7.5-2.2,11.2c-1.5,7.3-3,14.2-4.6,20.6c-1.6,6.5-3.1,12.4-4.7,17.9c-1.5,5.4-3,10.3-4.4,14.6
					c-1.3,4.3-2.6,8-3.7,11c-1.7,4.8-2.9,7.9-3.5,8.9c-0.1,0-0.2,0-0.3-0.1c0.1-1.1,0.9-4.2,2.2-9.2c0.9-3,1.9-6.8,3-11.1
					c1.1-4.3,2.5-9.2,3.8-14.7c1.4-5.4,2.8-11.4,4.2-17.9c1.5-6.4,2.8-13.3,4.2-20.6c0.7-3.7,1.3-7.4,2-11.2
					c0.6-3.8,1.2-7.7,1.8-11.7c1.2-7.9,2.4-16.2,3.4-24.6c1-8.5,1.9-16.7,2.7-24.7c0.8-8,1.4-15.7,2-23c1.1-14.7,2.1-27.9,3-39.1
					c0.9-11.1,1.6-20.1,2.1-26.3C665.8,370.9,666.2,367.5,666.5,367.5"/>
				<path d="M651.2,381.8c-1.6,6.6-5,11.3-6,11c-1.1-0.4,0.4-5.4,2-11.7c1.6-6.2,2.6-11.4,3.8-11.4
					C652.1,369.8,652.9,375.2,651.2,381.8"/>
				<path d="M637.9,431.8c1.1-8.2,2.9-14.8,4.1-14.7c1.1,0.1,1.1,6.8,0,15.1c-1.1,8.2-2.9,14.8-4.1,14.7
					C636.8,446.8,636.8,440,637.9,431.8"/>
				<path d="M633.1,475.7c0.8-7.6,0.4-13.9,1.6-14c1-0.2,3.3,6.2,2.4,14.3c-0.8,8.1-4.3,14.1-5.3,13.8
					C630.7,489.4,632.3,483.3,633.1,475.7"/>
				<path d="M622.4,531.3c-1.1-0.2-0.3-6.7,1-14.6c1.4-7.9,2.8-14.3,3.9-14.3c1.1,0.1,1.5,6.7,0.1,14.7
					C626.1,525.2,623.5,531.5,622.4,531.3"/>
				<path d="M681.4,93.5c0.3-0.2,0.5-0.3,0.7-0.3c0,0.1-0.4,0.2-0.9,0.4C681.2,93.6,681.3,93.6,681.4,93.5"/>
				<path d="M613,460.4c-1.1,0-1.7-5.4-0.5-11.9c1.2-6.5,3.6-11.5,4.7-11.3c1.1,0.2,0.4,5.5-0.7,11.8S614.2,460.5,613,460.4"/>
				<path d="M624,379.3c-0.6,0-0.9-1.5-0.8-3.8c0.1-2.3,0.9-5.5,2.5-8.8c1.6-3.3,3.8-6.1,5.7-7.8c1.9-1.8,3.4-2.6,3.8-2.3
					c0.9,0.6-2.7,5.2-5.7,11.3C626.4,374,625.2,379.4,624,379.3"/>
				<path d="M599.4,541.2c-0.9-1.5-1.6-3.8-1.7-6.3c-0.1-2.5,0.5-4.8,1.3-6.4c0.8-1.6,1.7-2.4,2.2-2.2c1.1,0.3,0.4,4,0.5,8.5
					c0.1,4.5,1,8.2-0.1,8.5C601.2,543.5,600.3,542.7,599.4,541.2"/>
				<path d="M616.4,417.3c-1.1-0.1-0.9-5.4,2.5-11.1c3.4-5.8,8.4-9.2,9.2-8.6c0.9,0.6-2.4,4.7-5.5,10
					C619.4,412.9,617.6,417.5,616.4,417.3"/>
				<path d="M600.7,511.2c-1.1-0.1-1.3-6.4-0.4-14.1c0.9-7.7,2.5-13.9,3.6-13.9c1.1,0.1,1.3,6.4,0.4,14.1
					C603.5,505.1,601.8,511.3,600.7,511.2"/>
				<path d="M626.7,333.5c0,0.1-0.1,0.1-0.2,0.1c-0.2,0.1-0.5-0.1-0.1-0.2C626.5,333.4,626.6,333.5,626.7,333.5"/>
				<path d="M643.2,333.7c5-0.2,9.4-1.1,12.5-2c1.5-0.4,2.8-0.8,3.8-1.1c0.9-0.3,1.5-0.3,1.7-0.1s-0.1,0.6-0.9,1.2
					c-0.7,0.6-1.8,1.4-3.4,2.1c-3.1,1.5-7.9,3-13.5,3.1c-5.6,0.2-10.6-0.9-13.8-2.1c-0.8-0.3-1.5-0.7-2.1-1
					c-0.4-0.2-0.6-0.3-0.8-0.4c0-0.1,0-0.2,0-0.2c0-0.1,0-0.1,0-0.1c0,0-0.1,0-0.3-0.2c-0.3-0.1-1.1-0.4-0.3-0.8
					c0.6-0.3,1.7-0.1,2.2,0.1c0.7,0.1,1.4,0.3,2.1,0.5C633.8,333.3,638.2,334,643.2,333.7"/>
				<path d="M657.6,325.6c-3.5,1.2-8.7,2.6-14.8,2.6c-6.2,0-11.6-1.8-14.7-4c-0.7-0.5-1.3-0.9-1.8-1.4c0-0.7,0.1-1.5,0.1-2.2
					c0.8,0.5,1.9,1,3.3,1.6c3.1,1.3,7.8,2.5,13.1,2.6c5.4,0,10.3-0.9,13.9-1.5c3.6-0.6,6-1,6.1-0.5c0,0,0,0.1,0,0.1
					C662.8,323.4,660.9,324.4,657.6,325.6"/>
				<path d="M624.6,320c0.3-0.2,0.9,0.1,1.9,0.7c0,0.7-0.1,1.5-0.1,2.2C624.7,321.4,624.3,320.2,624.6,320"/>
				<path d="M573.4,598.4c0,0.5-0.1,0.8-0.1,0.8c-0.1,0-0.1-0.3-0.2-0.9C573.2,598.3,573.3,598.4,573.4,598.4"/>
				<path d="M647.7,614.9c-0.1,0.8-19.4-0.5-42.3-5.5c-23-4.9-40.5-11.6-40.1-12.4c0.2-0.4,3,0.2,7.8,1.3c0.1,0.6,0.2,0.8,0.2,0.9
					c0.1,0,0.1-0.3,0.1-0.8c7.4,1.8,19.4,4.9,33,7.8c9.1,2,17.5,3.6,24.3,4.9c0,0.2-0.1,0.4,0,0.4c0,0,0.2-0.1,0.3-0.3
					C641.2,613.1,647.8,614.3,647.7,614.9"/>
				<path d="M671.8,178.3c0,0.3,0.2,0.6,0.2,0.8c0,0,0,0,0,0l2.6-2.5c4.9-4.8,10-9.5,15.4-14.1c10.7-9.2,22.2-18.1,34.4-26.4
					c6.6-4.5,13.4-8.8,20.3-12.9c3.5-2,6.9-4,10.5-6l2.2-1.2c0.9-0.5,1.7-0.9,2.6-1.3c1.1-1,1,0.5,1.3,1.2c0.2,0.8,0.4,1.6,0.6,2.4
					c0.1,0.4,0.2,0.8,0.2,1.2l0,0.7c0,0.5,0,1-0.1,1.5c-0.1,1-0.4,1.9-0.7,2.8c-3,7.2-9.9,11.9-15.6,16.6
					c-5.9,4.7-11.7,9.4-17.3,14.1c-11.1,9.4-21.3,19.4-28,30.7c-0.8,1.4-1.7,2.8-2.3,4.3l-1.5,3.1c0,0.1-0.2,0.3,0,0.2l1.6-0.8
					c6.5-3.4,13.4-6.2,20.4-8.5c7-2.3,14.2-4.2,21.3-5.5c1.8-0.3,3.6-0.6,5.4-0.9c0.9-0.1,1.8-0.3,2.7-0.4l3.8-0.5l4.9-0.5l2.5-0.2
					c0.4,0,1-0.1,1.1-0.1l-0.9,0.7c-2.3,1.9-4.5,3.9-6.9,5.7c-10.3,8.1-21.6,14.6-31.5,21.6c-20,13.9-32.7,31.6-40.5,48.6
					c-7.8,17.1-11.1,33.5-12.7,47.9c-1.6,14.5-1.5,27-1.3,37.2c0.2,10.3,0.6,18.2,0.8,23.6c0.1,2.7,0.2,4.8,0.2,6.1
					c0,1.4,0,2.1-0.1,2.1c0,0-0.1-0.4-0.2-1.2c0-0.3-0.1-0.6-0.1-0.9c-0.1-1.4-0.3-3.4-0.6-6.1c-0.5-5.4-1.1-13.3-1.6-23.6
					c-0.2-4.5-0.3-9.5-0.3-14.9c0-6.8,0.2-14.4,1-22.5c1.4-14.6,4.5-31.2,12.3-48.6c7.7-17.3,20.5-35.5,41-49.9
					c10-7.2,21.3-13.7,31.2-21.6l0.5-0.4c0-0.1-0.4,0-0.5,0l-1.5,0.2c-0.9,0.1-1.8,0.2-2.6,0.4c-1.7,0.3-3.5,0.6-5.2,0.9
					c-7,1.3-13.9,3.1-20.7,5.4c-6.8,2.3-13.5,5.1-19.8,8.4l-1.2,0.6c-0.5,0.2-1.5,0.8-2.2,1.2l-4.6,2.5l-2.3,1.3
					c-0.1,0-0.2,0.1-0.3,0.1l0.1-0.3l0.2-0.6l0.4-1.1l1.6-4.4l0.8-2.2c0.1-0.4,0.2-0.6,0.3-0.8l0.3-0.5l1-2.3c0.7-1.5,1.6-3,2.4-4.4
					c6.9-11.7,17.4-22,28.6-31.5c5.6-4.8,11.5-9.5,17.3-14.2c2.9-2.4,5.9-4.7,8.5-7.2c2.6-2.5,4.9-5.2,6-8.1
					c0.3-0.7,0.5-1.5,0.6-2.2c0.1-0.4,0.1-0.7,0.1-1.1l0-0.5l0,0l-0.4,0.2c-3.5,1.9-6.9,3.9-10.3,5.9c-6.9,4.1-13.6,8.3-20.1,12.8
					c-12.1,8.2-23.5,17-34,26.1c-5.3,4.6-10.3,9.2-15.2,14l-1.8,1.8l-1.1,1.1c-0.6,0.6-1.2,1.3-1.8,1.7l-0.9,0.7
					c-0.1,0.1-0.3,0.3-0.4,0.3l-0.4-0.4c-0.6-0.5-1.1-1.1-1.7-1.6c-0.5-0.5-0.9-1.3-1.3-1.9c-0.2-0.5-0.3-1-0.5-1.4
					c-0.7-3.8,0.8-7,2.4-9.9c13.3-22.2,28.7-42.5,45.3-60.8c4.1-4.6,8.4-9,12.7-13.4l3.2-3.2l1-1l0.5-0.5c-0.1,0-0.1,0-0.3,0
					c-0.3,0.1,0.3-0.1-1.8,0.5c-5.8,1.9-10.8,5.4-15.2,9c-4.5,3.7-8.8,7.6-13,11.4c-16.8,15.3-31.3,30.5-43.9,45.1
					c-6.4,7.2-11.7,14.8-19.5,20.6c-1,0.7-1.9,1.4-3,2c-0.6,0.3-0.9,0.6-1.7,1l-2.4,1.2l-2.6,1.2c0,0-0.1,0-0.2,0.1l0-0.1l0-0.3
					l0-0.6l0-1.2l-0.1-2.4l0.1-1.6c0.2-4,0.9-7.8,1.9-11.5c4.1-14.7,12.6-26.4,20.2-35.9c7.8-9.5,14.9-17,20.3-23.1
					c2.6-3,5-5.7,6.9-7.8c2.3-3.1,1.1-3.2,2.3-4c0,0,0-0.1,0.1,0c0.6-0.2,0.9-0.3,0.9-0.4l0,0c1.2-0.2,0.6,1.8,0.6,1.8
					c-0.7,0.9-2.3,1.9-3.1,3c-1.8,2.3-4,4.9-6.6,8c-5.2,6.1-12.2,13.8-19.7,23.3c-7.4,9.5-15.5,21.2-19.3,35.5
					c-0.9,3.6-1.6,7.3-1.7,11.1l-0.1,1.4l0,0.5c0,0.1,0,0.4,0.1,0.5l0.5-0.3l0.7-0.4l1.4-0.8c0.9-0.6,1.9-1.2,2.8-1.9
					c7.2-5.4,12.5-13,18.9-20.3c12.5-14.8,27.1-30.1,43.8-45.6c4.2-3.8,8.4-7.7,13-11.6c4.6-3.8,9.8-7.5,16.5-9.7
					c0.9-0.3,1.4-0.5,3.2-0.8l2.2-0.4l2-0.2l4.3-0.4c0.3-0.1,0,0.1,0,0.2l-0.3,0.3l-0.6,0.6l-1.2,1.3c-1.6,1.7-3.3,3.4-4.9,5.1
					l-3.2,3.2c-4.2,4.3-8.4,8.7-12.6,13.3c-16.5,18.2-31.7,38.5-44.8,60.4C672.4,173,671.3,175.9,671.8,178.3"/>
				<path d="M682.1,93.2L682.1,93.2c-0.2,0-0.4,0.1-0.7,0.3c-0.1,0-0.2,0.1-0.2,0.2c0,0,0,0-0.1,0c-1,0.3-2.7,0.8-4.9,1.7
					c-3.7,1.4-8.8,4-14,8.3c-5.2,4.2-10.5,10-15.8,16.7c-5.4,6.7-11.1,14.3-16.6,22.3c-11.1,16.1-19.6,31.5-25.2,42.7
					c-4.5,9-6,12.7-6.8,13.8c-0.2,0-0.4,0-0.6,0c-0.2-1.1,0.5-5,4.7-14.7c5-11.5,13.1-27.2,24.3-43.5c5.6-8.2,11.4-15.7,17.1-22.4
					c5.6-6.7,11.2-12.6,16.9-16.7c5.6-4.2,11.3-6.7,15.3-7.8C679.7,93.1,682.1,93.1,682.1,93.2"/>
				<path d="M597.8,199.3c-0.2,0.3-0.3,0.4-0.4,0.4c-0.1,0-0.1-0.1-0.2-0.3C597.4,199.3,597.6,199.3,597.8,199.3"/>
				<path d="M586,488.3c-3,13.2-5.2,25.6-7.1,37c-0.9,5.7-1.6,11.1-2.3,16.2c-0.6,5.1-1.1,10-1.6,14.5c-0.7,9.1-1.3,16.9-1.4,23.3
					c-0.3,6.4-0.1,11.4-0.1,14.7c0,2.1,0,3.5-0.1,4.4c-0.1,0-0.2-0.1-0.3-0.1c-0.1-0.8-0.3-2.3-0.4-4.3c-0.3-3.4-0.7-8.4-0.7-14.8
					c-0.2-6.4,0.2-14.3,0.7-23.4c0.4-4.6,0.9-9.4,1.3-14.6c0.7-5.1,1.3-10.6,2.1-16.3c1.7-11.4,3.8-23.9,6.6-37.2
					c2.7-13.3,6-27.5,9.8-42.3c3.7-14.9,7.9-30.4,12.2-46.5c4.3-16.1,9-32.8,13.3-49.9c2-8.6,3.7-17,4.3-25.4
					c0.2-4.2,0.5-8.4,0.2-12.5c-0.1-2.1,0-4.1-0.3-6.2c-0.3-2.1-0.5-4.1-0.8-6.1c-2.2-16.2-8.3-31.4-16.1-44.9
					c-7.8-13.6-17.8-25.5-28.8-35.4c-11-10-22.8-18-34.6-24.1c-1.5-0.8-3.1-1.6-4.4-2.8c-1.3-1.1-2.6-2.6-2.5-4.5
					c0-1.8,1.6-3.4,3.3-4.2c1.7-0.7,3.4-1.1,5.1-1.2c6.6-0.5,12.7,0.3,18.3,1.6c5.5,1.4,10.3,3.4,14.2,5.8c3.9,2.4,7,4.9,10.2,6.7
					c3.1,1.8,6.2,3,9.2,3.3c0.7,0.1,1.3,0.1,1.9,0.1c0,0.2,0.1,0.3,0.2,0.3c0.1,0,0.3-0.1,0.4-0.4c1.9,0,3.5-0.4,4.8-0.8
					c3.7-1.4,4.4-3.4,4.6-3.2c0,0-0.1,0.5-0.6,1.2c-0.6,0.8-1.7,1.8-3.6,2.6c-1.9,0.8-4.6,1.3-7.7,1.1c-3.2-0.2-6.7-1.4-9.9-3.2
					c-3.4-1.8-6.6-4.3-10.5-6.5c-3.8-2.2-8.5-4-13.7-5.3c-5.2-1.2-11.2-1.8-17.3-1.3c-2.9,0.2-6,1.3-6,3.3c0,1.9,2.8,3.8,5.7,5.2
					c12.1,6.2,24.3,14.2,35.6,24.3c11.3,10,21.6,22.1,29.7,35.9c8,13.8,14.3,29.3,16.6,45.9c0.3,2.1,0.5,4.1,0.8,6.2
					c0.3,2.1,0.2,4.2,0.3,6.3c0.3,3.2,0.1,6.4,0,9.6c-1-0.6-1.7-0.9-1.9-0.7c-0.3,0.2,0.1,1.4,1.8,2.9c0,0.4,0,0.7-0.1,1.1
					c-0.6,8.6-2.3,17.2-4.4,25.9c-4.3,17.2-9,33.8-13.4,49.9c-4.4,16.1-8.7,31.6-12.5,46.4C592.3,460.9,588.9,475,586,488.3"/>
			</g>
		</g>
	</g>
	<g>
		
			<!-- <image style="overflow:visible;opacity:0.35;" width="1071" height="2331" xlink:href="19F558EDE680291B.png"  transform="matrix(0.24 0 0 0.24 17.64 70.6164)">
		</image> -->
		<g>
			<g>
				<path class="st0" d="M151.8,325c-6.1,0-11.3-1.4-14.8-2.6c-3.3-1.2-5.2-2.2-5.3-2.7l-1.6,0c0,5.4-0.2,10.4-0.3,14.9
					c-0.5,10.3-1.2,18.2-1.6,23.6c-0.3,2.7-0.5,4.7-0.6,6.1c-0.1,0.3-0.1,0.6-0.1,0.9l0.5,0c0.1-0.6,0.1-0.9,0.2-0.9
					c0.3,0,0.7,3.4,1.3,9.6c0.5,6.2,1.2,15.2,2.1,26.3c0.8,11.1,1.9,24.4,3,39.1c0.6,7.3,1.3,15,2,23c0.8,8,1.6,16.2,2.7,24.7
					c1,8.5,2.2,16.7,3.4,24.6c0.6,4,1.3,7.9,1.8,11.7c0.7,3.8,1.4,7.5,2,11.2c1.4,7.2,2.7,14.1,4.2,20.6c1.4,6.4,2.8,12.4,4.2,17.9
					c1.3,5.5,2.6,10.4,3.8,14.7c1.1,4.3,2.1,8.1,3,11.1c1.3,4.9,2.1,8.1,2.2,9.2c6.9-1.3,15.3-3,24.3-4.9c13.6-3,25.6-6,33-7.8
					c-0.1-0.8-0.1-2.3-0.1-4.4c0-3.4,0.2-8.3-0.1-14.7c0-6.4-0.6-14.2-1.4-23.3c-0.5-4.5-1-9.4-1.6-14.5c-0.7-5.1-1.4-10.6-2.3-16.2
					c-1.9-11.3-4.1-23.7-7.1-37c-2.9-13.3-6.3-27.4-10.1-42.2c-3.8-14.8-8-30.3-12.5-46.4c-4.4-16.1-9.1-32.7-13.4-49.9
					c-2-8.6-3.8-17.2-4.4-25.9c0-0.4,0-0.7-0.1-1.1c-0.5,0.5-1.1,0.9-1.8,1.4C163.3,323.1,157.9,324.9,151.8,325 M167.2,499.3
					c1.2-0.1,2.5,6.4,3.9,14.3c1.4,7.9,2.1,14.4,1,14.6c-1.1,0.2-3.7-6.1-5.1-14.1C165.7,506,166.2,499.3,167.2,499.3 M138.9,328.6
					c3.1,0.9,7.5,1.8,12.5,2c5,0.2,9.4-0.4,12.6-1c0.8-0.1,1.5-0.3,2.1-0.5c0.6-0.1,1.7-0.4,2.2-0.1c0.8,0.4,0.1,0.7-0.3,0.8
					c-0.2,0.2-0.2,0.2-0.3,0.2c0,0,0,0,0,0.1c0,0,0,0.1,0,0.2c0.1,0,0.2-0.1,0.3-0.1c0.4,0.1,0,0.3-0.1,0.2c-0.1,0-0.1,0-0.2-0.1
					c-0.2,0.1-0.4,0.2-0.8,0.4c-0.6,0.3-1.3,0.6-2.1,1c-3.2,1.3-8.2,2.4-13.8,2.1c-5.6-0.2-10.4-1.7-13.5-3.1
					c-1.6-0.7-2.7-1.5-3.4-2.1c-0.7-0.6-1-1-0.9-1.2c0.1-0.2,0.8-0.1,1.7,0.1C136.1,327.7,137.4,328.1,138.9,328.6 M152.7,413.8
					c1.1-0.1,2.9,6.5,4.1,14.7c1.1,8.2,1.1,15,0,15.1c-1.1,0.1-2.9-6.5-4.1-14.7C151.5,420.7,151.5,413.9,152.7,413.8 M159.9,458.5
					c1.2,0.1,0.8,6.4,1.6,14c0.8,7.6,2.4,13.7,1.2,14c-1,0.3-4.5-5.7-5.3-13.8C156.6,464.7,158.9,458.3,159.9,458.5 M147.4,377.9
					c1.5,6.2,3,11.3,2,11.7c-1,0.3-4.3-4.5-6-11c-1.7-6.6-0.9-12,0.2-12C144.8,366.5,145.8,371.7,147.4,377.9 M194.3,493.8
					c0.9,7.7,0.7,14.1-0.4,14.1c-1.1,0.1-2.8-6.1-3.7-13.9c-0.9-7.7-0.7-14.1,0.4-14.1C191.8,479.9,193.4,486.1,194.3,493.8
					 M196.8,531.6c-0.1,2.6-0.8,4.8-1.7,6.3c-0.9,1.5-1.8,2.3-2.3,2.1c-1.1-0.3-0.2-4-0.1-8.5c0.2-4.5-0.5-8.2,0.5-8.5
					c0.5-0.1,1.4,0.7,2.2,2.2C196.3,526.8,196.9,529.1,196.8,531.6 M175.7,403c3.4,5.7,3.6,11,2.5,11.1c-1.1,0.2-3-4.4-6.2-9.7
					c-3.1-5.3-6.4-9.4-5.5-10C167.3,393.8,172.3,397.2,175.7,403 M171.5,372.3c0.1,2.3-0.3,3.8-0.8,3.8c-1.2,0.1-2.4-5.3-5.4-11.4
					c-3-6.1-6.6-10.7-5.7-11.3c0.4-0.3,1.9,0.5,3.8,2.3c1.9,1.8,4.1,4.5,5.7,7.8C170.6,366.8,171.3,370,171.5,372.3 M177.4,434
					c1.1-0.2,3.5,4.8,4.7,11.3c1.2,6.5,0.6,11.9-0.5,11.9c-1.2,0.1-2.4-5.1-3.5-11.4C177,439.4,176.3,434.2,177.4,434"/>
				<path class="st0" d="M79.1,105c16.7,18.4,32.1,38.7,45.3,60.8c1.5,2.9,3.1,6.1,2.4,9.9c-0.1,0.5-0.3,0.9-0.5,1.4
					c-0.4,0.6-0.8,1.4-1.3,1.9c-0.5,0.5-1.1,1.1-1.7,1.6l-0.4,0.4c-0.2-0.1-0.3-0.2-0.4-0.3l-0.9-0.7c-0.6-0.4-1.2-1.1-1.8-1.7
					l-1.1-1.1l-1.8-1.8c-4.9-4.7-10-9.4-15.2-14c-10.6-9.1-21.9-17.9-34-26.1c-6.6-4.5-13.3-8.7-20.1-12.8c-3.4-2-6.8-4-10.3-5.9
					l-0.4-0.2l0,0l0,0.5c0,0.4,0,0.7,0.1,1.1c0.1,0.7,0.3,1.5,0.6,2.2c1.1,2.9,3.4,5.6,6,8.1c2.6,2.5,5.6,4.8,8.5,7.2
					c5.9,4.7,11.7,9.4,17.3,14.2c11.2,9.6,21.7,19.8,28.6,31.5c0.8,1.5,1.7,2.9,2.4,4.4l1,2.3l0.3,0.5c0.1,0.2,0.2,0.3,0.3,0.8
					l0.8,2.2l1.6,4.4l0.4,1.1l0.2,0.6l0.1,0.3c-0.1,0-0.2-0.1-0.3-0.1l-2.3-1.3l-4.6-2.5c-0.7-0.4-1.7-0.9-2.2-1.2l-1.2-0.6
					c-6.3-3.3-13-6.1-19.8-8.4c-6.8-2.3-13.7-4.1-20.7-5.4c-1.7-0.3-3.5-0.7-5.2-0.9c-0.9-0.1-1.8-0.3-2.6-0.4l-1.5-0.2
					c-0.1,0-0.5-0.1-0.5,0l0.5,0.4c10,7.9,21.2,14.4,31.2,21.6c20.4,14.3,33.3,32.6,41,49.9c7.8,17.4,10.9,34,12.3,48.6
					c0.8,8.2,1,15.7,1,22.5l1.6,0c0,0,0-0.1,0-0.1c0.2-0.4,2.5-0.1,6.1,0.5c3.6,0.6,8.5,1.6,13.9,1.5c5.3,0,10-1.2,13.1-2.6
					c1.4-0.6,2.5-1.2,3.3-1.6c-0.1-3.2-0.3-6.4,0-9.6c0.1-2.1,0.1-4.2,0.3-6.3c0.3-2.1,0.6-4.2,0.8-6.2c2.4-16.6,8.6-32.1,16.6-45.9
					c8.1-13.8,18.4-25.9,29.7-35.9c11.3-10.1,23.5-18.1,35.6-24.3c2.8-1.4,5.7-3.3,5.7-5.2c0.1-2-3.1-3.1-6-3.3
					c-6.1-0.5-12,0.1-17.3,1.3c-5.2,1.2-9.9,3.1-13.7,5.3c-3.9,2.2-7.1,4.7-10.5,6.5c-3.3,1.8-6.8,3-9.9,3.2
					c-3.1,0.2-5.8-0.3-7.7-1.1c-1.9-0.8-3.1-1.8-3.6-2.6c-0.6-0.7-0.7-1.2-0.6-1.2c0.2-0.2,0.9,1.8,4.6,3.2c1.3,0.4,2.9,0.8,4.8,0.8
					c-0.8-1.1-2.3-4.9-6.8-13.8c-5.6-11.3-14.1-26.6-25.2-42.7c-5.6-8.1-11.2-15.6-16.6-22.3c-5.4-6.7-10.6-12.5-15.8-16.7
					c-5.2-4.3-10.3-6.8-14-8.3c-2.2-0.8-3.9-1.4-4.9-1.7c1.2,0.7-0.1,0.8,2.3,4c1.9,2.2,4.2,4.8,6.9,7.8c5.4,6,12.6,13.6,20.3,23.1
					c7.6,9.5,16.1,21.2,20.2,35.9c1,3.7,1.7,7.5,1.9,11.5l0.1,1.6l-0.1,2.4l0,1.2l0,0.6l0,0.3l0,0.1c0,0-0.1,0-0.2-0.1l-2.6-1.2
					l-2.4-1.2c-0.7-0.4-1.1-0.6-1.7-1c-1-0.6-2-1.3-3-2c-7.7-5.7-13.1-13.4-19.5-20.6c-12.6-14.6-27.2-29.8-43.9-45.1
					c-4.2-3.8-8.5-7.7-13-11.4c-4.5-3.6-9.4-7.1-15.2-9c-2-0.6-1.5-0.4-1.8-0.5c-0.1,0-0.2,0-0.3,0l0.5,0.5l1,1l3.2,3.2
					C70.7,95.9,74.9,100.4,79.1,105"/>
				<path d="M163.6,608c0.1,0.2,0.2,0.3,0.3,0.3c0.1,0,0-0.1,0-0.4C163.8,607.9,163.7,607.9,163.6,608"/>
				<path d="M128.1,364.3c-0.1,0-0.2,0.3-0.2,0.9c-0.1,1.4-0.1,4.4-0.1,8.8c0.1,6.2,0.3,15.2,0.8,26.4c0.5,11.1,1.1,24.4,2.1,39.1
					c0.5,7.4,1.1,15.1,1.8,23.1c0.8,8,1.5,16.3,2.6,24.7c1,8.5,2.2,16.7,3.4,24.7c0.7,4,1.3,7.9,2,11.7c0.8,3.8,1.5,7.5,2.2,11.2
					c1.5,7.3,3,14.2,4.6,20.6c1.6,6.5,3.1,12.4,4.7,17.9c1.5,5.4,3,10.3,4.4,14.6c1.3,4.3,2.6,8,3.7,11c1.7,4.8,2.9,7.9,3.5,8.9
					c0.1,0,0.2,0,0.3-0.1c-0.1-1.1-0.9-4.2-2.2-9.2c-0.9-3-1.9-6.8-3-11.1c-1.1-4.3-2.5-9.2-3.8-14.7c-1.4-5.4-2.8-11.4-4.2-17.9
					c-1.5-6.4-2.8-13.3-4.2-20.6c-0.7-3.7-1.3-7.4-2-11.2c-0.6-3.8-1.2-7.7-1.8-11.7c-1.2-7.9-2.4-16.2-3.4-24.6
					c-1-8.5-1.9-16.7-2.7-24.7c-0.8-8-1.4-15.7-2-23c-1.1-14.7-2.1-27.9-3-39.1c-0.9-11.1-1.6-20.1-2.1-26.3
					C128.8,367.7,128.4,364.3,128.1,364.3"/>
				<path d="M143.4,378.6c1.6,6.6,5,11.3,6,11c1.1-0.4-0.4-5.4-2-11.7c-1.6-6.2-2.6-11.4-3.8-11.4
					C142.5,366.5,141.7,372,143.4,378.6"/>
				<path d="M156.7,428.5c-1.1-8.2-2.9-14.8-4.1-14.7c-1.1,0.1-1.1,6.8,0,15.1c1.1,8.2,2.9,14.8,4.1,14.7
					C157.8,443.5,157.8,436.8,156.7,428.5"/>
				<path d="M161.6,472.5c-0.8-7.6-0.4-13.9-1.6-14c-1-0.2-3.3,6.2-2.4,14.3c0.8,8.1,4.3,14.1,5.3,13.8
					C163.9,486.2,162.3,480.1,161.6,472.5"/>
				<path d="M172.2,528.1c1.1-0.2,0.3-6.7-1-14.6c-1.4-7.9-2.8-14.3-3.9-14.3c-1.1,0.1-1.5,6.7-0.1,14.7
					C168.5,522,171.1,528.3,172.2,528.1"/>
				<path d="M113.2,90.3c-0.3-0.2-0.5-0.3-0.7-0.3c0,0.1,0.4,0.2,0.9,0.4C113.4,90.4,113.3,90.4,113.2,90.3"/>
				<path d="M181.6,457.2c1.1,0,1.7-5.4,0.5-11.9c-1.2-6.5-3.6-11.5-4.7-11.3c-1.1,0.2-0.4,5.5,0.7,11.8
					C179.3,452.1,180.5,457.3,181.6,457.2"/>
				<path d="M170.6,376.1c0.6,0,0.9-1.5,0.8-3.8c-0.1-2.3-0.9-5.5-2.5-8.8c-1.6-3.3-3.8-6.1-5.7-7.8c-1.9-1.8-3.4-2.6-3.8-2.3
					c-0.9,0.6,2.7,5.2,5.7,11.3C168.2,370.8,169.5,376.2,170.6,376.1"/>
				<path d="M195.2,538c0.9-1.5,1.6-3.8,1.7-6.3c0.1-2.5-0.5-4.8-1.3-6.4c-0.8-1.6-1.7-2.4-2.2-2.2c-1.1,0.3-0.4,4-0.5,8.5
					c-0.1,4.5-1,8.2,0.1,8.5C193.4,540.2,194.3,539.5,195.2,538"/>
				<path d="M178.2,414.1c1.1-0.1,0.9-5.4-2.5-11.1c-3.4-5.8-8.4-9.2-9.2-8.6c-0.9,0.6,2.4,4.7,5.5,10
					C175.2,409.7,177.1,414.3,178.2,414.1"/>
				<path d="M193.9,508c1.1-0.1,1.3-6.4,0.4-14.1c-0.9-7.7-2.5-13.9-3.6-13.9c-1.1,0.1-1.3,6.4-0.4,14.1
					C191.2,501.9,192.8,508,193.9,508"/>
				<path d="M168,330.3c0,0.1,0.1,0.1,0.2,0.1c0.2,0.1,0.5-0.1,0.1-0.2C168.2,330.2,168.1,330.3,168,330.3"/>
				<path d="M151.4,330.5c-5-0.2-9.4-1.1-12.5-2c-1.5-0.4-2.8-0.8-3.8-1.1c-0.9-0.3-1.5-0.3-1.7-0.1c-0.1,0.2,0.1,0.6,0.9,1.2
					c0.7,0.6,1.8,1.4,3.4,2.1c3.1,1.5,7.9,3,13.5,3.1c5.6,0.2,10.6-0.9,13.8-2.1c0.8-0.3,1.5-0.7,2.1-1c0.4-0.2,0.6-0.3,0.8-0.4
					c0-0.1,0-0.2,0-0.2c0-0.1,0-0.1,0-0.1c0,0,0.1,0,0.3-0.2c0.3-0.1,1.1-0.4,0.3-0.8c-0.6-0.3-1.7-0.1-2.2,0.1
					c-0.7,0.1-1.4,0.3-2.1,0.5C160.9,330.1,156.4,330.7,151.4,330.5"/>
				<path d="M137,322.4c3.5,1.2,8.7,2.6,14.8,2.6c6.2,0,11.6-1.8,14.7-4c0.7-0.5,1.3-0.9,1.8-1.4c0-0.7-0.1-1.5-0.1-2.2
					c-0.8,0.5-1.9,1-3.3,1.6c-3.1,1.3-7.8,2.5-13.1,2.6c-5.4,0-10.3-0.9-13.9-1.5c-3.6-0.6-6-1-6.1-0.5c0,0,0,0.1,0,0.1
					C131.8,320.2,133.7,321.2,137,322.4"/>
				<path d="M170,316.8c-0.3-0.2-0.9,0.1-1.9,0.7c0,0.7,0.1,1.5,0.1,2.2C169.9,318.1,170.3,316.9,170,316.8"/>
				<path d="M221.2,595.1c0,0.5,0.1,0.8,0.1,0.8c0.1,0,0.1-0.3,0.2-0.9C221.4,595.1,221.3,595.1,221.2,595.1"/>
				<path d="M146.9,611.7c0.1,0.8,19.4-0.5,42.3-5.5c23-4.9,40.5-11.6,40.1-12.4c-0.2-0.4-3,0.2-7.8,1.3c-0.1,0.6-0.2,0.8-0.2,0.9
					c-0.1,0-0.1-0.3-0.1-0.8c-7.4,1.8-19.4,4.9-33,7.8c-9.1,2-17.5,3.6-24.3,4.9c0,0.2,0.1,0.4,0,0.4c0,0-0.2-0.1-0.3-0.3
					C153.4,609.9,146.8,611.1,146.9,611.7"/>
				<path d="M122.8,175.1c0,0.3-0.2,0.6-0.2,0.8c0,0,0,0,0,0l-2.6-2.5c-4.9-4.8-10-9.5-15.4-14.1c-10.7-9.2-22.2-18.1-34.4-26.4
					c-6.6-4.5-13.4-8.8-20.3-12.9c-3.5-2-6.9-4-10.5-6l-2.2-1.2c-0.9-0.5-1.7-0.9-2.6-1.3c-1.1-1-1,0.5-1.3,1.2
					c-0.2,0.8-0.4,1.6-0.6,2.4c-0.1,0.4-0.2,0.8-0.2,1.2l0,0.7c0,0.5,0,1,0.1,1.5c0.1,1,0.4,1.9,0.7,2.8c3,7.2,9.9,11.9,15.6,16.6
					c5.9,4.7,11.7,9.4,17.3,14.1c11.1,9.4,21.3,19.4,28,30.7c0.8,1.4,1.7,2.8,2.3,4.3l1.5,3.1c0,0.1,0.2,0.3,0,0.2l-1.6-0.8
					c-6.5-3.4-13.4-6.2-20.4-8.5c-7-2.3-14.2-4.2-21.3-5.5c-1.8-0.3-3.6-0.6-5.4-0.9c-0.9-0.1-1.8-0.3-2.7-0.4l-3.8-0.5L38,173
					l-2.5-0.2c-0.4,0-1-0.1-1.1-0.1l0.9,0.7c2.3,1.9,4.5,3.9,6.9,5.7c10.3,8.1,21.6,14.6,31.5,21.6c20,13.9,32.7,31.6,40.5,48.6
					c7.8,17.1,11.1,33.5,12.7,47.9c1.6,14.5,1.5,27,1.3,37.2c-0.2,10.3-0.6,18.2-0.8,23.6c-0.1,2.7-0.2,4.8-0.2,6.1
					c0,1.4,0,2.1,0.1,2.1c0,0,0.1-0.4,0.2-1.2c0-0.3,0.1-0.6,0.1-0.9c0.1-1.4,0.3-3.4,0.6-6.1c0.5-5.4,1.1-13.3,1.6-23.6
					c0.2-4.5,0.3-9.5,0.3-14.9c0-6.8-0.2-14.4-1-22.5c-1.4-14.6-4.5-31.2-12.3-48.6c-7.7-17.3-20.5-35.5-41-49.9
					c-10-7.2-21.3-13.7-31.2-21.6l-0.5-0.4c0-0.1,0.4,0,0.5,0l1.5,0.2c0.9,0.1,1.8,0.2,2.6,0.4c1.7,0.3,3.5,0.6,5.2,0.9
					c7,1.3,13.9,3.1,20.7,5.4c6.8,2.3,13.5,5.1,19.8,8.4l1.2,0.6c0.5,0.2,1.5,0.8,2.2,1.2l4.6,2.5l2.3,1.3c0.1,0,0.2,0.1,0.3,0.1
					l-0.1-0.3l-0.2-0.6l-0.4-1.1l-1.6-4.4l-0.8-2.2c-0.1-0.4-0.2-0.6-0.3-0.8l-0.3-0.5l-1-2.3c-0.7-1.5-1.6-3-2.4-4.4
					c-6.9-11.7-17.4-22-28.6-31.5c-5.6-4.8-11.5-9.5-17.3-14.2c-2.9-2.4-5.9-4.7-8.5-7.2c-2.6-2.5-4.9-5.2-6-8.1
					c-0.3-0.7-0.5-1.5-0.6-2.2c-0.1-0.4-0.1-0.7-0.1-1.1l0-0.5l0,0l0.4,0.2c3.5,1.9,6.9,3.9,10.3,5.9c6.9,4.1,13.6,8.3,20.1,12.8
					c12.1,8.2,23.5,17,34,26.1c5.3,4.6,10.3,9.2,15.2,14l1.8,1.8l1.1,1.1c0.6,0.6,1.2,1.3,1.8,1.7l0.9,0.7c0.1,0.1,0.3,0.3,0.4,0.3
					l0.4-0.4c0.6-0.5,1.1-1.1,1.7-1.6c0.5-0.5,0.9-1.3,1.3-1.9c0.2-0.5,0.3-1,0.5-1.4c0.7-3.8-0.8-7-2.4-9.9
					c-13.3-22.2-28.7-42.5-45.3-60.8c-4.1-4.6-8.4-9-12.7-13.4l-3.2-3.2l-1-1l-0.5-0.5c0.1,0,0.1,0,0.3,0c0.3,0.1-0.3-0.1,1.8,0.5
					c5.8,1.9,10.8,5.4,15.2,9c4.5,3.7,8.8,7.6,13,11.4c16.8,15.3,31.3,30.5,43.9,45.1c6.4,7.2,11.7,14.8,19.5,20.6
					c1,0.7,1.9,1.4,3,2c0.6,0.3,0.9,0.6,1.7,1l2.4,1.2l2.6,1.2c0,0,0.1,0,0.2,0.1l0-0.1l0-0.3l0-0.6l0-1.2l0.1-2.4l-0.1-1.6
					c-0.2-4-0.9-7.8-1.9-11.5c-4.1-14.7-12.6-26.4-20.2-35.9c-7.8-9.5-14.9-17-20.3-23.1c-2.6-3-5-5.7-6.9-7.8
					c-2.3-3.1-1.1-3.2-2.3-4c0,0,0-0.1-0.1,0c-0.6-0.2-0.9-0.3-0.9-0.4l0,0c-1.2-0.2-0.6,1.8-0.6,1.8c0.7,0.9,2.3,1.9,3.1,3
					c1.8,2.3,4,4.9,6.6,8c5.2,6.1,12.2,13.8,19.7,23.3c7.4,9.5,15.5,21.2,19.3,35.5c0.9,3.6,1.6,7.3,1.7,11.1l0.1,1.4l0,0.5
					c0,0.1,0,0.4-0.1,0.5l-0.5-0.3l-0.7-0.4l-1.4-0.8c-0.9-0.6-1.9-1.2-2.8-1.9c-7.2-5.4-12.5-13-18.9-20.3
					c-12.5-14.8-27.1-30.1-43.8-45.6c-4.2-3.8-8.4-7.7-13-11.6c-4.6-3.8-9.8-7.5-16.5-9.7c-0.9-0.3-1.4-0.5-3.2-0.8l-2.2-0.4l-2-0.2
					l-4.3-0.4c-0.3-0.1,0,0.1,0,0.2l0.3,0.3l0.6,0.6l1.2,1.3c1.6,1.7,3.3,3.4,4.9,5.1l3.2,3.2c4.2,4.3,8.4,8.7,12.6,13.3
					c16.5,18.2,31.7,38.5,44.8,60.4C122.2,169.8,123.4,172.7,122.8,175.1"/>
				<path d="M112.5,90L112.5,90c0.2,0,0.4,0.1,0.7,0.3c0.1,0,0.2,0.1,0.2,0.2c0,0,0,0,0.1,0c1,0.3,2.7,0.8,4.9,1.7
					c3.7,1.4,8.8,4,14,8.3c5.2,4.2,10.5,10,15.8,16.7c5.4,6.7,11.1,14.3,16.6,22.3c11.1,16.1,19.6,31.5,25.2,42.7
					c4.5,9,6,12.7,6.8,13.8c0.2,0,0.4,0,0.6,0c0.2-1.1-0.5-5-4.7-14.7c-5-11.5-13.1-27.2-24.3-43.5c-5.6-8.2-11.4-15.7-17.1-22.4
					c-5.6-6.7-11.2-12.6-16.9-16.7c-5.6-4.2-11.3-6.7-15.3-7.8C115,89.9,112.6,89.8,112.5,90"/>
				<path d="M196.8,196.1c0.2,0.3,0.3,0.4,0.4,0.4c0.1,0,0.1-0.1,0.2-0.3C197.2,196.1,197,196.1,196.8,196.1"/>
				<path d="M208.6,485.1c3,13.2,5.2,25.6,7.1,37c0.9,5.7,1.6,11.1,2.3,16.2c0.6,5.1,1.1,10,1.6,14.5c0.7,9.1,1.3,16.9,1.4,23.3
					c0.3,6.4,0.1,11.4,0.1,14.7c0,2.1,0,3.5,0.1,4.4c0.1,0,0.2-0.1,0.3-0.1c0.1-0.8,0.3-2.3,0.4-4.3c0.3-3.4,0.7-8.4,0.7-14.8
					c0.2-6.4-0.2-14.3-0.7-23.4c-0.4-4.6-0.9-9.4-1.3-14.6c-0.7-5.1-1.3-10.6-2.1-16.3c-1.7-11.4-3.8-23.9-6.6-37.2
					c-2.7-13.3-6-27.5-9.7-42.3c-3.7-14.9-7.9-30.4-12.2-46.5c-4.3-16.1-9-32.8-13.3-49.9c-2-8.6-3.7-17-4.3-25.4
					c-0.2-4.2-0.5-8.4-0.2-12.5c0.1-2.1,0-4.1,0.3-6.2c0.3-2.1,0.5-4.1,0.8-6.1c2.2-16.2,8.3-31.4,16.1-44.9
					c7.8-13.6,17.8-25.5,28.8-35.4c11-10,22.8-18,34.6-24.1c1.5-0.8,3.1-1.6,4.4-2.8c1.3-1.1,2.6-2.6,2.5-4.5c0-1.8-1.6-3.4-3.3-4.2
					c-1.7-0.7-3.4-1.1-5.1-1.2c-6.6-0.5-12.7,0.3-18.3,1.6c-5.5,1.4-10.3,3.4-14.2,5.8c-3.9,2.4-7,4.9-10.2,6.7
					c-3.1,1.8-6.2,3-9.2,3.3c-0.7,0.1-1.3,0.1-1.9,0.1c0,0.2-0.1,0.3-0.2,0.3c-0.1,0-0.3-0.1-0.4-0.4c-1.9,0-3.5-0.4-4.8-0.8
					c-3.7-1.4-4.4-3.4-4.6-3.2c0,0,0.1,0.5,0.6,1.2c0.6,0.8,1.7,1.8,3.6,2.6c1.9,0.8,4.6,1.3,7.7,1.1c3.2-0.2,6.7-1.4,9.9-3.2
					c3.4-1.8,6.6-4.3,10.5-6.5c3.8-2.2,8.5-4,13.7-5.3c5.2-1.2,11.2-1.8,17.3-1.3c2.9,0.2,6,1.3,6,3.3c0,1.9-2.8,3.8-5.7,5.2
					c-12.1,6.2-24.3,14.2-35.6,24.3c-11.3,10-21.6,22.1-29.7,35.9c-8,13.8-14.3,29.3-16.6,45.9c-0.3,2.1-0.5,4.1-0.8,6.2
					c-0.3,2.1-0.2,4.2-0.3,6.3c-0.3,3.2-0.1,6.4,0,9.6c1-0.6,1.7-0.9,1.9-0.7c0.3,0.2-0.1,1.4-1.8,2.9c0,0.4,0,0.7,0.1,1.1
					c0.6,8.6,2.3,17.2,4.4,25.9c4.3,17.2,9,33.8,13.4,49.9c4.4,16.1,8.7,31.6,12.5,46.4C202.3,457.7,205.8,471.8,208.6,485.1"/>
			</g>
		</g>
	</g>
</g>
<g id="Layer_2">
</g>
<g id="shape-fish">
</g>
</svg>
