<?xml version="1.0" encoding="utf-8"?>
<!-- Generator: Adobe Illustrator 23.0.4, SVG Export Plug-In . SVG Version: 6.00 Build 0)  -->
<svg version="1.1" xmlns="http://www.w3.org/2000/svg" xmlns:xlink="http://www.w3.org/1999/xlink" x="0px" y="0px"
	 viewBox="0 0 271.3 628.4" style="enable-background:new 0 0 271.3 628.4;" xml:space="preserve">
<style type="text/css">
	.st0{fill:#FFFFFF;}
</style>
<g id="Layer_3">
</g>
<g id="Layer_1">
	<g>
		
			<!-- <image style="overflow:visible;opacity:0.35;" width="880" height="2471" xlink:href="577BA0ED0C80F319.png"  transform="matrix(0.24 0 0 0.24 34.8988 21.2464)">
		</image> -->
		<g>
			<g>
				<path d="M138.8,535.8c0,0.8-0.3,1.1-0.4,1.1c-0.1,0-0.1-0.4-0.4-0.9c-0.2-0.4-0.7-1-1.4-1.2c-0.5-0.1-1.1,0-1.9,0.4l0,0
					c0-0.3,1.2-1,3.5-0.5c0.2,0,0.4,0.1,0.5,0.1C138.8,535.1,138.8,535.5,138.8,535.8"/>
				<path class="st0" d="M129.9,560.9c-1.1-2.4-1.6-5.2-1.8-7.9c-0.4-5.4,0.6-10.3,2.5-13.5c1.2-2.1,2.8-3.6,4.2-4.3
					c0.1,0.3,1.3,0.4,3,1.3c1.7,0.9,4.2,2.8,5.2,6.5c0.5,1.8,0.7,4,0.7,6.5c-0.1,2.4-0.2,5.3-0.6,7.9c-0.4,2.6-1.2,5.2-2.7,6.9
					c-1.5,1.8-3.4,2.4-5.5,1.7C132.6,565.2,130.9,563.3,129.9,560.9"/>
				<path d="M130.3,452c0.2,0.1,0.3,0.3,0.4,0.4C130.6,452.3,130.5,452.1,130.3,452"/>
				<path d="M128.5,451.2c0.1-0.2,0.8,0,1.8,0.9c0.1,0.1,0.3,0.3,0.4,0.4c0,0,0.1,0,0.1,0.1c1.2,1.6,1.2,2.9,0.9,2.9
					c-0.3,0.2-0.8-0.7-2-1.5c0,0,0-0.1-0.1-0.1C128.8,452.3,128.3,451.5,128.5,451.2"/>
				<path d="M147.1,549.4c0.1,2.7,0.1,5.5-0.2,8.6c-0.3,3.1-1.2,6.7-3.5,9.6c-1.1,1.4-2.7,2.6-4.5,3.2c-1.8,0.6-3.7,0.5-5.4-0.1
					c-3.4-1.2-6-4.4-7.3-7.6c-1.4-3.3-1.9-6.6-2-9.8c-0.2-6.3,1.2-12.1,4-16c1.3-1.9,3-3.2,4.5-4c1.5-0.8,3.2-1.1,4.5-0.4
					c0.9,0.4,1.3,1.2,1.6,1.8c-0.2,0-0.4-0.1-0.5-0.1c-2.3-0.5-3.5,0.2-3.5,0.5l0,0c-1.4,0.7-3,2.2-4.2,4.3
					c-1.9,3.2-2.9,8.1-2.5,13.5c0.2,2.7,0.8,5.5,1.8,7.9c1.1,2.4,2.7,4.4,4.9,5.1c2.1,0.8,4.1,0.1,5.5-1.7c1.5-1.8,2.3-4.3,2.7-6.9
					c0.4-2.6,0.5-5.4,0.6-7.9c0-2.5-0.1-4.7-0.7-6.5c-1-3.7-3.4-5.6-5.2-6.5c-1.7-0.8-2.9-0.9-3-1.3c0.7-0.4,1.4-0.5,1.9-0.4
					c0.7,0.1,1.2,0.7,1.4,1.2c0.3,0.5,0.2,0.9,0.4,0.9c0.1,0,0.4-0.3,0.4-1.1c0-0.3,0-0.6-0.1-1c1,0.3,2.2,0.8,3.4,1.7
					c1.4,1.1,2.8,2.9,3.6,5.2C146.6,544,147,546.7,147.1,549.4"/>
				<path class="st0" d="M122.3,472.4c-2.7-1.7-3.2-6.5-2.4-10.3c0.7-3.9,2.4-7,4.5-8.1c2.1-1.2,4.3-0.7,5.5,0
					c0.8,1.5,1.9,3.7,2.5,6.6c0.6,2.9,0.2,6.6-1.6,9.5c-1,1.4-2.2,2.5-3.7,2.9C125.4,473.5,123.6,473.2,122.3,472.4"/>
				<path d="M123.2,364.2c1.1,0.7,1.8,1,1.9,1.5c0,0.3-0.6,0.8-1.5,0.9C123.4,365.8,123.3,365,123.2,364.2"/>
				<path class="st0" d="M116.5,355c-0.6-3.7,0.8-7.3,2.2-9.4c0.9-1.4,1.8-2.3,2.3-3c0.6,7.4,1.3,14.6,2.1,21.6
					c-0.5-0.3-1.1-0.7-1.8-1.2C119.4,361.6,117.1,358.7,116.5,355"/>
				<path d="M121,342.6c0-0.4-0.1-0.9-0.1-1.3c0.3,0,0.4,0.2,0.5,0.3C121.5,341.9,121.3,342.2,121,342.6"/>
				<path d="M115.7,469c-0.5-2.9-0.2-5.6,0.4-8c1.1-4.8,3.7-8.9,7.1-10.3c3.1-1.2,5.7,0,7.1,1.4c-1-0.9-1.7-1-1.8-0.9
					c-0.2,0.3,0.3,1.2,1.2,2.7c0,0,0,0.1,0.1,0.1c-1.2-0.7-3.4-1.2-5.5,0c-2,1.2-3.8,4.2-4.5,8.1c-0.8,3.8-0.3,8.5,2.4,10.3
					c1.3,0.9,3.1,1.1,4.6,0.6c1.5-0.4,2.8-1.5,3.7-2.9c1.9-2.9,2.2-6.7,1.6-9.5c-0.5-2.9-1.6-5.1-2.5-6.6c1.2,0.7,1.7,1.6,2,1.5
					c0.2,0,0.3-1.3-0.9-2.9h0c1.3,1.3,3.1,3.5,4.2,7c1.1,3.5,1.3,8.7-1.3,13.2c-1.2,2.2-3.3,4.2-5.9,5c-2.5,0.8-5.3,0.6-7.8-1.1
					C117.6,475,116.1,471.8,115.7,469"/>
				<path d="M120.6,291.3c0.1,0,0.1,0.1,0.1,0.1c0,0-0.1,0.1-0.1,0.1C120.7,291.4,120.7,291.4,120.6,291.3L120.6,291.3z"/>
				<path d="M120.6,291.2C120.7,291.2,120.7,291.2,120.6,291.2L120.6,291.2z"/>
				<path d="M120.6,291.3L120.6,291.3L120.6,291.3C120.6,291.2,120.6,291.2,120.6,291.3"/>
				<path d="M120.4,290.9c0.1,0.2,0.2,0.3,0.2,0.3l0,0c-0.1,0-0.2,0-0.3-0.1C120.3,291.1,120.3,291,120.4,290.9"/>
				<path d="M120.9,292.6c-0.4,0.2-0.6,0.3-0.8,0.4c0-0.8,0.1-1.5,0.1-2.3c0.1,0,0.1,0.1,0.1,0.2v0c0.1-0.1,0.3-0.2,0.3-0.3
					c0.1,0,0.6-0.2,0.8,0.7C121.6,292,121.2,292.4,120.9,292.6 M120.6,291.3c0,0-0.1-0.2-0.2-0.3c-0.1,0.1-0.1,0.2-0.1,0.3
					C120.4,291.4,120.5,291.3,120.6,291.3L120.6,291.3L120.6,291.3c0.1,0.1,0.1,0.2,0.1,0.2c0,0,0.1-0.2,0.1-0.1
					C120.8,291.4,120.7,291.3,120.6,291.3C120.7,291.2,120.7,291.2,120.6,291.3L120.6,291.3C120.6,291.2,120.6,291.2,120.6,291.3"/>
				<path d="M112.3,355.9c-0.4-2.9,0.1-5.7,1-7.9c0.9-2.2,2.2-3.9,3.4-4.9c1.8-1.6,3.5-1.9,4.2-1.8c0,0.5,0.1,0.9,0.1,1.3
					c-0.4,0.6-1.4,1.6-2.3,3c-1.4,2.1-2.8,5.7-2.2,9.4c0.6,3.7,2.9,6.6,4.8,8c0.7,0.5,1.3,0.9,1.8,1.2c0.1,0.8,0.2,1.6,0.3,2.4
					c-0.8,0.2-1.9,0.1-3.3-0.4c-1.5-0.5-3.2-1.5-4.7-3.3C114,361.2,112.8,358.8,112.3,355.9"/>
				<path class="st0" d="M101,519.4c0.2,0.5,0.3,0.9,0.2,1.5c-0.1,1.2-0.9,3.4-1.8,5.3c-0.5,1-1.1,2-1.7,2.9
					c-0.7,0.9-0.6,0.5-0.6,0.6c0,0.1-0.7-0.9-0.9-1.8c-0.3-1-0.4-2-0.3-3c0.1-2,0.7-3.9,1.4-5.3c0.6-1.2,1.4-2.1,2-2.8l0,0
					c-0.1,0.1-0.1,0.2-0.1,0.3c0,0.3,0.5,0.6,1.1,1.2C100.5,518.6,100.8,519,101,519.4"/>
				<path d="M109.2,272.1c-4.7,1.9-9,3.5-11.6,4.2c0.1-1.2,0.2-2.4,0.3-3.5c2.3-1.7,5.8-3.7,9.9-5.4c7.9-3.1,14.7-3.4,15-2
					c0,0,0,0,0,0.1C122.8,266.8,116.6,269.1,109.2,272.1"/>
				<path d="M92.2,529.3c-0.4-1.7-0.5-3.4-0.3-4.9c0.4-3.1,1.6-5.5,3-7c1.3-1.6,2.8-2.4,3.8-2.6c1-0.2,1.6,0,1.7,0.3
					c0.1,0.4-0.4,0.9-1.2,1.7c-0.6,0.6-1.3,1.5-2,2.8c-0.7,1.4-1.3,3.3-1.4,5.3c0,1,0.1,2,0.3,3c0.2,0.9,0.9,1.9,0.9,1.8
					c0,0-0.1,0.3,0.6-0.6c0.6-0.9,1.2-1.9,1.7-2.9c0.9-1.9,1.7-4.1,1.8-5.3c0.1-0.6,0-1-0.2-1.5c-0.2-0.5-0.5-0.9-0.8-1.1
					c-0.5-0.6-1.1-0.8-1.1-1.2c0-0.1,0-0.2,0.1-0.3c0.2-0.3,0.7-0.5,1.6-0.4c0.6,0.1,1.3,0.4,2,1.1c0.7,0.6,1.3,1.9,1.4,3.2
					c0.1,1.4-0.1,2.7-0.3,3.8c-0.2,1.2-0.6,2.5-1.1,3.8c-0.5,1.3-1.1,2.5-1.9,3.9c-0.5,0.7-0.9,1.4-2.1,2.1c-1.1,0.6-2.5,0.7-3.6,0
					C93.1,532.8,92.7,531,92.2,529.3"/>
				<path d="M99.6,291.1c2.4-0.6,5.5-1.1,9.1-1.2c3.6-0.2,6.8-0.1,9.2,0.2c0.6,0.1,1.1,0.2,1.6,0.3c0.3,0.1,0.7,0.1,0.8,0.3
					c0,0.8-0.1,1.5-0.1,2.3c-0.2,0.1-0.4,0.1-0.6,0.2c-0.4,0.2-1,0.3-1.5,0.5c-2.3,0.6-5.5,1.1-9.1,1.2c-3.6,0.2-6.8,0.1-9.1-0.2
					c-2.1-0.4-3.2,0-3.7-0.5c-0.1-0.1-0.1-0.3,0-0.6c0.1-0.3,0.2-0.6,0.6-0.9C97.2,292,98.3,291.5,99.6,291.1"/>
				<path class="st0" d="M108.7,289.9c-3.6,0.2-6.7,0.6-9.1,1.2c-1.2,0.3-2.3,0.9-2.9,1.5c-0.3,0.3-0.5,0.7-0.6,0.9l-0.1,0
					c0.7-5.7,1.3-11.5,1.7-17.3c2.6-0.7,6.8-2.3,11.6-4.2c7.4-3,13.6-5.3,13.6-6.7c-0.7,4.7-1.2,9.4-1.7,14.1
					c-0.4,3.8-0.6,7.5-0.9,11.2c-0.2-0.1-0.5-0.1-0.8-0.3c-0.4-0.1-1-0.2-1.6-0.3C115.5,289.8,112.3,289.7,108.7,289.9"/>
				<path d="M94.9,276.2c-0.3-0.6,0.9-1.9,3-3.5c-0.1,1.2-0.2,2.4-0.3,3.5C96.1,276.6,95.1,276.7,94.9,276.2"/>
				<path d="M89.3,588.2c1.5-0.4,4.5-0.6,8.7-0.6c3-0.1,6.5,0,10.4,0.1c3.9,0.1,8.2,0.3,12.8,0.6c4.5,0.4,8.9,0.9,12.8,1.4
					c1.9,0.3,3.8,0.6,5.6,0.8c1.8,0.4,3.4,0.8,4.8,1.2c4.1,1.2,7,2.6,8.2,3.4c0,0.1,0,0.2,0,0.3c0,0.3,0,0.6,0,0.8
					c-1.4,0.1-4.5-0.5-8.8-1.1c-1.5-0.2-3-0.4-4.8-0.6c-1.7-0.1-3.6-0.2-5.5-0.3c-3.9-0.3-8.2-0.6-12.6-1c-4.5-0.3-8.8-0.7-12.7-1
					c-3.9-0.4-7.4-0.8-10.4-1.2c-4.1-0.6-7.2-1.1-8.6-1.7C89.3,589,89.3,588.6,89.3,588.2"/>
				<path d="M89.3,588.2c0,0.4,0,0.8,0,1.2c-0.3-0.1-0.6-0.3-0.7-0.4v0c0-0.2,0-0.3,0-0.5C88.6,588.4,88.9,588.3,89.3,588.2"/>
				<path d="M88.8,594.9c-0.1,0-0.2-2-0.3-5.8c0.1,0.1,0.4,0.2,0.7,0.3C89.1,593,88.9,594.9,88.8,594.9"/>
				<path d="M88.3,588.7c0-0.1,0.1-0.2,0.2-0.3c0,0.2,0,0.3,0,0.5C88.4,588.9,88.3,588.8,88.3,588.7"/>
				<path d="M86.2,435.6c0-1,0-2-0.1-3c0.1,0,0.3,0.1,0.3,0.2c0,0.2,0,0.4,0.1,0.4c0.2,0.1,0.2,0.2,0.6,0.5c0.7,0.6,1.7,1,3.1,0.9
					c0.7,0,1.4-0.2,2.1-0.7c0.7-0.4,1.3-0.9,1.8-1.8c1-1.6,1.6-4.1,1.6-6.8c0-2.8-0.4-5.4-1.3-7.2c-0.9-1.9-2.1-2.9-3.5-3.3
					c-1.4-0.4-2.5-0.2-3.3,0.1c-0.8,0.3-1.3,0.7-1.5,0.5c-0.1,0-0.1-0.2-0.1-0.4c0-0.3,0.2-1,0.7-1.7c0.7-1.1,2.4-2.2,4.6-2.1
					c1.1,0.1,2.3,0.3,3.5,1.1c1.2,0.8,2.1,1.9,3,3.3c1.6,2.8,2.2,6.2,2.2,9.7c0,3.5-0.9,7.1-2.9,9.7c-0.9,1.3-2.3,2.3-3.5,2.7
					c-1.2,0.5-2.5,0.5-3.6,0.3C88.3,437.9,86.9,436.7,86.2,435.6"/>
				<path d="M86.2,432.7c0,1,0,2,0.1,3c-0.1-0.3-0.3-0.5-0.3-0.7c-0.3-0.6-0.4-1.5-0.1-1.9C85.9,432.8,86.1,432.7,86.2,432.7"/>
				<path class="st0" d="M87.2,367.7c1.2-22.1,5.1-45,8.1-69c0.2-1.7,0.4-3.4,0.6-5.1l0.1,0c-0.1,0.3,0,0.4,0,0.6
					c0.4,0.5,1.5,0.1,3.7,0.5c2.3,0.3,5.6,0.4,9.1,0.2c3.6-0.2,6.8-0.7,9.1-1.2c0.5-0.1,1.1-0.3,1.5-0.5c0.2-0.1,0.4-0.1,0.6-0.2
					c-0.9,16.6-0.4,32.7,0.8,48.3c-0.8-0.2-2.4,0.2-4.2,1.8c-1.3,1.1-2.5,2.7-3.4,4.9c-0.9,2.2-1.4,5-1,7.9c0.5,2.9,1.7,5.4,3.2,7.1
					c1.5,1.7,3.2,2.8,4.7,3.3c1.4,0.5,2.5,0.5,3.3,0.4c0.1,0.9,0.2,1.8,0.3,2.7c3.6,27.8,8.5,53.3,12.9,76.6
					c4.4,23.2,8.2,44.3,10.8,62.9c2.6,18.6,4.2,34.8,4.9,48.1c0.7,13.3,0.6,23.6,0.5,30.6c-0.1,3.3-0.2,5.9-0.2,7.7
					c-1.3-0.9-4.2-2.2-8.2-3.4c-1.5-0.4-3.1-0.8-4.8-1.2c-1.8-0.2-3.6-0.5-5.6-0.8c-3.9-0.5-8.3-1-12.8-1.4
					c-4.5-0.3-8.9-0.5-12.8-0.6c-3.9-0.1-7.5-0.2-10.4-0.1c-4.2,0-7.2,0.3-8.7,0.6c0-0.3,0-0.6,0-0.9c0.2-5,0.3-12.3,0.3-21.7
					c0-18.8-0.9-46.1-2-79.8c-0.5-15.4-1-32.2-1.3-50.1c0.7,1.1,2,2.2,3.9,2.6c1.1,0.2,2.3,0.1,3.6-0.3c1.2-0.4,2.6-1.4,3.5-2.7
					c2-2.5,2.9-6.2,2.9-9.7c0-3.5-0.6-6.9-2.2-9.7c-0.8-1.4-1.8-2.5-3-3.3c-1.2-0.8-2.4-1.1-3.5-1.1c-2.2-0.1-3.9,1-4.6,2.1
					c-0.5,0.7-0.7,1.3-0.7,1.7h0C86,399.9,86.2,384.1,87.2,367.7 M91.9,524.4c-0.2,1.5-0.1,3.2,0.3,4.9c0.5,1.6,0.9,3.5,3.1,5
					c1.1,0.7,2.5,0.6,3.6,0c1.2-0.7,1.6-1.4,2.1-2.1c0.8-1.4,1.4-2.6,1.9-3.9c0.5-1.3,0.9-2.6,1.1-3.8c0.2-1.2,0.4-2.4,0.3-3.8
					c-0.1-1.3-0.8-2.5-1.4-3.2c-0.7-0.6-1.4-1-2-1.1c-0.9-0.1-1.4,0.2-1.6,0.4l0,0c0.8-0.8,1.3-1.4,1.2-1.7
					c-0.1-0.3-0.7-0.5-1.7-0.3c-1,0.2-2.5,1-3.8,2.6C93.5,519,92.3,521.4,91.9,524.4 M146.9,558c0.3-3.2,0.3-5.9,0.2-8.6
					c-0.1-2.7-0.5-5.4-1.4-7.7c-0.9-2.3-2.2-4.1-3.6-5.2c-1.2-1-2.4-1.5-3.4-1.7c-0.3-0.6-0.7-1.4-1.6-1.8c-1.3-0.7-3-0.4-4.5,0.4
					c-1.5,0.8-3.2,2.1-4.5,4c-2.8,3.8-4.2,9.7-4,16c0.2,3.2,0.6,6.5,2,9.8c1.3,3.3,3.9,6.4,7.3,7.6c1.7,0.6,3.6,0.7,5.4,0.1
					c1.8-0.6,3.3-1.8,4.5-3.2C145.6,564.8,146.6,561.2,146.9,558 M116.1,461c-0.6,2.4-0.8,5.1-0.4,8c0.4,2.8,1.9,6.1,4.5,7.7
					c2.5,1.7,5.3,1.9,7.8,1.1c2.5-0.8,4.6-2.8,5.9-5c2.6-4.5,2.5-9.7,1.3-13.2c-1.1-3.6-2.9-5.8-4.2-7h0c0-0.1-0.1-0.1-0.1-0.1
					c-0.1-0.1-0.3-0.3-0.4-0.4c-1.4-1.4-4-2.5-7.1-1.4C119.8,452.1,117.1,456.2,116.1,461"/>
				<path class="st0" d="M92.4,434c-0.7,0.4-1.4,0.6-2.1,0.7c-1.4,0.2-2.4-0.3-3.1-0.9c-0.4-0.3-0.4-0.3-0.6-0.5
					c-0.1,0-0.1-0.3-0.1-0.4c0-0.1-0.1-0.2-0.3-0.2c0-0.6,0-1.3,0-1.9c-0.1-5.1-0.1-10.4-0.1-15.7h0c0,0.3,0,0.4,0.1,0.4
					c0.3,0.2,0.7-0.2,1.5-0.5s1.9-0.6,3.3-0.1c1.4,0.4,2.6,1.4,3.5,3.3c0.9,1.8,1.3,4.5,1.3,7.2c0,2.7-0.6,5.2-1.6,6.8
					C93.6,433,93.1,433.6,92.4,434"/>
				<path d="M73.5,75.6c0.2-0.1,0.4-0.3,0.6-0.3c-0.4,0.3-0.7,0.5-0.7,0.5l0,0C73.4,75.6,73.5,75.6,73.5,75.6"/>
				<path d="M73.4,75.7c0-0.1,0.5-0.6,1.5-1.6c1.1-1.1,2.7-2.5,4.9-4.4c2.2-1.8,5.1-3.9,8.9-5.6c3.7-1.6,8.6-2.8,13.8-0.9
					c5.2,1.6,10,6.4,13.8,12.3c3.9,5.8,7.3,12.8,11.7,19.4c2.2,3.2,4.9,6.4,7.8,8.8c1.5,1.1,3.1,1.6,4.4,0.7
					c1.4-0.8,2.5-2.7,3.5-4.8c4.3-8.3,9-17.1,14.6-25.7c5.7-8.6,12.2-17.3,20.5-24.5c8.2-7.2,18.1-13,29.3-15.1
					c1.4-0.2,2.8-0.4,4.2-0.6c0.5,0,1.9-0.2,3.1-0.1l3.7,0c0.3,0,0.7,0,0.8,0.1l-0.4,0.9l-0.9,1.9c-0.6,1.3-1.2,2.6-1.9,3.8
					c-0.9,1.7-1.6,2.9-2.5,4.3c-3.5,5.4-7.8,10.3-12.2,14.7c-9,8.9-19,16.6-26.7,27.4c-1.9,2.7-3.7,5.5-5.2,8.5
					c-1.5,2.9-2.8,6.5-3.5,9.3c0,0.2-0.2,0.9,0.1,0.4l0.1-0.2l0.6-0.6c1.1-1.4,2.5-2.5,3.7-3.9c10.2-9.9,22.5-17.2,35.9-21.1
					c3.3-0.9,6.7-1.7,10.2-2.1l2.1-0.3c0.9-0.1,1.6-0.2,2.4-0.2l4.9-0.3l2.5-0.1l1.2-0.1l0.6,0c0.1,0-0.2,0.3-0.3,0.4l-3.7,3.6
					c-6.3,6-12.7,12-19.2,18c-8.7,8.1-17.5,16.4-26.4,24.8c3.7-0.9,7.4-1.7,11.1-2.6c3.3-0.8,6.6-1.5,9.9-2.3
					c1.7-0.4,3.2-0.8,5.1-1.1c1.9-0.2,3.8-0.2,5.9,0.5c1.2,0.4,2.5,1.2,3.5,2.7c0.9,1.6,1.3,3.5,0.9,5.2c-0.8,3.4-2.4,5-3.7,6.9
					c-3,3.5-6.5,6.1-9.9,8.2c-7,4.2-13.7,7.8-19.8,12.9c-12.4,9.6-22.7,22.2-31,36c-8.4,13.7-14.6,28.9-19.3,44.2
					c-4.7,15.4-7.6,31.1-9.1,46.6c-3,31.1-1,61,2.3,88.6c3.4,27.6,8.1,53.2,12.3,76.5c4.2,23.3,7.8,44.5,10.2,63.2
					c2.4,18.8,3.7,35.1,4.2,48.4c0.5,13.4,0.1,23.7-0.3,30.7c-0.2,3.5-0.5,6.2-0.7,7.9c-0.1-0.1-0.2-0.2-0.4-0.3
					c0.1-1.8,0.1-4.4,0.2-7.7c0.1-7,0.2-17.3-0.5-30.6c-0.7-13.2-2.2-29.4-4.9-48.1c-2.6-18.6-6.4-39.7-10.8-62.9
					c-4.4-23.3-9.3-48.8-12.9-76.6c-0.1-0.9-0.2-1.8-0.3-2.7c1-0.2,1.5-0.6,1.5-0.9c0-0.5-0.8-0.8-1.9-1.5c-0.8-7-1.6-14.2-2.1-21.6
					c0.3-0.4,0.4-0.7,0.4-1c0-0.2-0.2-0.3-0.5-0.3c-1.2-15.5-1.7-31.7-0.8-48.3c0.2-0.1,0.4-0.2,0.8-0.4c0.3-0.2,0.7-0.6,0.6-1.3
					c-0.2-0.9-0.7-0.7-0.8-0.7c-0.1,0-0.3,0.1-0.3,0.3v0c0-0.1,0-0.2-0.1-0.2c0.2-3.7,0.5-7.4,0.9-11.2c0.4-4.7,1-9.4,1.7-14.1
					c0,0,0,0,0-0.1c1.7-11.2,4.1-22.4,7.5-33.4c4.8-15.7,11-31.3,19.7-45.5c8.6-14.2,19.2-27.3,32.1-37.3
					c6.3-5.2,13.5-9.1,20.1-13.1c3.3-2.1,6.4-4.4,8.9-7.4c1.2-1.4,2.5-3.2,2.6-4.3c0.1-1.1-0.1-1.6-1.5-2.2
					c-1.1-0.4-2.7-0.5-4.1-0.3c-1.4,0.2-3.2,0.7-4.8,1c-3.3,0.8-6.6,1.6-9.9,2.3c-9.4,2.2-18.8,4.3-28.1,6.5
					c13.5-12.7,26.8-25.1,39.9-37.4c4.4-4.1,8.8-8.2,13.2-12.3c0.1,0,0.1-0.1,0-0.1h0l-0.5,0.1c-3.3,0.4-6.6,1.1-9.8,2
					c-12.8,3.6-24.6,10.6-34.3,20c-1.2,1.2-2.4,2.4-3.5,3.6l-1.3,1.4c-0.6,0.6-1.1,1.2-1.7,2c-1.2,1.6-2,2.3-3,3.4l-2.8,3.1
					c-0.1,0-0.3,0.4-0.3,0.2l0.1-0.6l0.1-1.2l0.2-2.4c0.4-3.2,0.5-6,1.4-9.6c2-8,5.5-14.2,9.6-19.9c8.2-11.4,18.6-19.1,27.3-27.8
					c4.4-4.3,8.4-8.9,11.7-14c0.8-1.2,1.7-2.7,2.2-3.7c0.1-0.2,0.4-0.6,0.3-0.7l-0.4,0l-1,0.1c-1.3,0.1-2.6,0.3-3.9,0.5
					c-10.5,1.9-20,7.3-27.9,14.1c-8,6.8-14.5,15.2-20.1,23.5c-5.6,8.5-10.3,17.1-14.7,25.3c-1.1,2-2.3,4.4-4.6,5.8
					c-1.1,0.7-2.5,0.9-3.7,0.6c-1.2-0.3-2.3-0.9-3.2-1.5c-3.4-2.8-6-6.1-8.3-9.6c-4.5-6.9-7.7-13.9-11.5-19.7
					C111,71,106.7,66.6,102,65c-4.7-1.9-9.3-0.9-12.9,0.5c-3.7,1.4-6.5,3.4-8.8,5c-2.9,2.2-4.9,3.8-5.9,4.6
					c-0.1,0.1-0.2,0.1-0.2,0.2c-0.2,0.1-0.4,0.2-0.6,0.3C73.5,75.6,73.4,75.6,73.4,75.7"/>
				<path class="st0" d="M70.3,79.8c2.8-3.6,4.8-4.8,4.7-5c0,0-0.3,0-0.7,0.3c1-0.8,3-2.4,5.9-4.6c2.3-1.6,5.2-3.6,8.8-5
					c3.6-1.4,8.2-2.4,12.9-0.5c4.7,1.6,9.1,6,12.7,11.8c3.8,5.7,7,12.7,11.5,19.7c2.3,3.4,4.9,6.8,8.3,9.6c0.9,0.7,1.9,1.3,3.2,1.5
					c1.2,0.3,2.6,0,3.7-0.6c2.3-1.4,3.5-3.8,4.6-5.8c4.4-8.2,9.1-16.9,14.7-25.3c5.6-8.4,12.1-16.7,20.1-23.5
					c8-6.9,17.4-12.2,27.9-14.1c1.3-0.2,2.6-0.4,3.9-0.5l1-0.1l0.4,0c0.1,0.1-0.2,0.5-0.3,0.7c-0.5,1-1.4,2.5-2.2,3.7
					c-3.3,5.1-7.4,9.6-11.7,14c-8.7,8.6-19.1,16.4-27.3,27.8c-4.1,5.7-7.6,11.9-9.6,19.9c-0.9,3.5-1,6.3-1.4,9.6l-0.2,2.4l-0.1,1.2
					l-0.1,0.6c0,0.2,0.2-0.2,0.3-0.2l2.8-3.1c1-1.1,1.8-1.8,3-3.4c0.6-0.7,1.1-1.4,1.7-2l1.3-1.4c1.1-1.3,2.4-2.4,3.5-3.6
					c9.7-9.4,21.6-16.3,34.3-20c3.2-0.9,6.5-1.6,9.8-2l0.5-0.1h0c0.1,0,0.1,0,0,0.1c-4.3,4.1-8.7,8.2-13.2,12.3
					c-13.1,12.3-26.4,24.8-39.9,37.4c9.3-2.1,18.7-4.3,28.1-6.5c3.3-0.7,6.6-1.5,9.9-2.3c1.6-0.3,3.4-0.8,4.8-1
					c1.5-0.2,3-0.1,4.1,0.3c1.4,0.6,1.6,1.1,1.5,2.2c-0.1,1.1-1.4,2.9-2.6,4.3c-2.5,3-5.6,5.3-8.9,7.4c-6.6,4-13.9,7.9-20.1,13.1
					c-12.9,10-23.5,23.1-32.1,37.3c-8.6,14.2-14.9,29.8-19.7,45.5c-3.3,11-5.8,22.3-7.5,33.4c-0.2-1.3-7.1-1.1-15,2
					c-4.1,1.6-7.6,3.6-9.9,5.4c1.1-16.2,0.9-32.9-1.8-49.6c-1-6.4-2.5-12.7-4.4-18.8c-1.9-6.1-4-12-7.2-17.6
					c-1.6-2.8-3.8-5.3-6.2-7.1c-2.3-1.9-4.7-3.3-6.9-4.9c-4.3-3-7.9-7-10.5-11.8c-5.3-9.7-6.8-21.6-6.8-32.9
					c0.1-5.6,0.4-11.5,1.4-16.6c1-5.2,3.4-9.9,7.1-10.1c3.6-0.4,7.4,3.3,9.1,7.5c1.8,4.5,2.1,9.6,2.1,14.8c0,5.1-0.3,10.5,0.4,15.9
					c0.7,5.3,2.3,10.7,5.8,14.7c3.5,4.1,8.7,5.3,13,4.6c4.4-0.6,8.5-2.4,11.9-5.2c6.8-5.5,11.7-14.3,11.3-23.7
					c-0.1-4.7-2-9-4.1-12.2c-2.1-3.3-4.1-6.2-5.5-9.5c-2.9-6.5-4.8-13.8-9.7-18.6c-2.4-2.4-5.6-3.4-8.5-3.1
					c-2.9,0.3-5.4,1.6-7.6,2.8c-4.4,2.5-8.5,4.9-12.2,4.4c-1.8-0.2-3.4-1.4-3.5-3c-0.1-1.7,0.6-3.6,1.2-5.3
					C67.4,84.1,68.9,81.6,70.3,79.8"/>
				<path d="M54.2,130c0,11.3,1.5,23.2,6.8,32.9c2.6,4.8,6.2,8.8,10.5,11.8c2.2,1.5,4.6,3,6.9,4.9c2.4,1.9,4.6,4.4,6.2,7.1
					c3.3,5.6,5.3,11.5,7.2,17.6c1.9,6.1,3.3,12.4,4.4,18.8c2.7,16.7,2.8,33.4,1.8,49.6c-2.1,1.6-3.3,3-3,3.5c0.2,0.5,1.2,0.4,2.7,0
					c-0.4,5.8-1,11.6-1.7,17.3c-0.2,1.7-0.4,3.4-0.6,5.1c-3,24.1-6.9,46.9-8.1,69c-1,16.3-1.2,32.2-1.2,47.4
					c0,5.3,0.1,10.5,0.1,15.7c0,0.6,0,1.3,0,1.9c-0.1,0-0.3,0.1-0.4,0.3c-0.3,0.5-0.2,1.4,0.1,1.9c0.1,0.2,0.2,0.4,0.3,0.7
					c0.3,17.9,0.8,34.7,1.3,50.1c1.1,33.7,2,61,2,79.8c0,9.5-0.1,16.8-0.3,21.7c0,0.3,0,0.6,0,0.9c-0.4,0.1-0.7,0.2-0.8,0.3
					c0-0.4,0-0.8,0-1.2c-0.1-5-0.3-12.3-0.5-21.7c-0.6-18.8-1.8-46-3.3-79.7c-0.8-16.8-1.5-35.3-2-55.1c-0.4-19.8-0.6-41,0.7-63.4
					c1.1-22.4,5-45.5,7.9-69.4c2.9-23.8,4.8-49,0.7-73.9c-1-6.2-2.4-12.3-4.1-18.1c-1.8-5.8-3.9-11.7-6.7-16.4
					c-2.7-4.8-7.1-7.4-11.8-10.6c-4.8-3.2-9-8-11.9-13.4c-5.9-11-7.4-23.7-7.3-35.6c0.1-6,0.5-11.7,1.6-17.7
					c0.6-2.9,1.5-5.9,3.2-8.6c1.7-2.6,4.4-4.8,7.4-5c0.8-0.1,1.7,0,2.5,0.2c0.2,0,0.4,0,0.5,0.1c1.8,0.5,3.5,1.5,4.9,2.7
					c2.1,1.9,3.8,4.4,4.9,7.2c2.1,5.5,2.3,11.4,2.3,16.7c0,5.4-0.4,10.5,0.3,15.2c0.6,4.8,2.1,9.4,4.7,12.4
					c2.6,3.1,6.4,4.1,10.1,3.6c3.7-0.5,7.4-2.1,10.4-4.5c6.1-4.7,10.5-12.6,10.1-20.3c0.1-7.9-6.2-13.1-8.9-20.5
					c-2.9-6.8-4.8-13.9-8.8-17.9c-2-2-4.5-2.8-6.9-2.7c-2.4,0.2-4.8,1.3-7,2.4c-4.4,2.2-8.8,4.8-13.2,4.1c-0.8-0.1-1.6-0.4-2.4-0.9
					c-0.2-0.2-0.5-0.3-0.7-0.5c-0.9-0.8-1.6-2.1-1.6-3.4c0-2.5,0.9-4.2,1.5-6c1.4-3.4,3.1-5.8,4.6-7.6c1.5-1.7,2.8-2.8,3.7-3.4
					c0,0,0.3-0.1,0.7-0.5c0,0,0.1-0.1,0.2-0.2c0.4-0.3,0.7-0.4,0.7-0.3c0.1,0.2-1.9,1.4-4.7,5c-1.4,1.8-2.9,4.3-4.1,7.5
					c-0.5,1.6-1.3,3.5-1.2,5.3c0.1,1.6,1.7,2.8,3.5,3c3.7,0.5,7.8-1.9,12.2-4.4c2.2-1.2,4.7-2.5,7.6-2.8c2.9-0.3,6.1,0.7,8.5,3.1
					c4.9,4.8,6.8,12.1,9.7,18.6c1.4,3.4,3.3,6.2,5.5,9.5c2.1,3.2,4,7.5,4.1,12.2c0.4,9.4-4.6,18.2-11.3,23.7
					c-3.4,2.8-7.5,4.7-11.9,5.2c-4.3,0.7-9.5-0.5-13-4.6c-3.5-4-5.1-9.4-5.8-14.7c-0.8-5.4-0.4-10.7-0.4-15.9c0-5.2-0.3-10.3-2-14.8
					c-1.7-4.2-5.4-7.9-9.1-7.5c-3.7,0.3-6.1,4.9-7.1,10.1C54.6,118.6,54.2,124.4,54.2,130"/>
			</g>
		</g>
	</g>
</g>
</svg>
